# 3ds Max Wavefront OBJ Exporter v0.97b - (c)2007 guruware
# File Created: 15.08.2017 19:19:13

#
# object House
#

v  -0.4971 0.3675 -0.1062
v  -0.4971 0.0307 -0.1062
v  -0.4971 0.0307 0.1040
v  -0.4971 0.3675 0.1040
v  -0.4938 0.3159 -0.3770
v  -0.4938 0.3159 -0.2382
v  -0.4938 0.5208 -0.2382
v  -0.4938 0.5208 -0.3770
v  -0.4938 0.3159 0.2381
v  -0.4938 0.3159 0.3769
v  -0.4938 0.5208 0.3769
v  -0.4938 0.5208 0.2381
v  -0.2306 0.3159 -0.4958
v  -0.3694 0.3159 -0.4958
v  -0.3694 0.5208 -0.4958
v  -0.2306 0.5208 -0.4958
v  0.0710 0.3159 -0.4958
v  -0.0678 0.3159 -0.4958
v  -0.0678 0.5208 -0.4958
v  0.0710 0.5208 -0.4958
v  0.3685 0.3159 -0.4958
v  0.2297 0.3159 -0.4958
v  0.2297 0.5208 -0.4958
v  0.3685 0.5208 -0.4958
v  0.4961 0.3159 -0.3677
v  0.4961 0.5208 -0.3677
v  0.4961 0.5208 -0.2289
v  0.4961 0.3159 -0.2289
v  0.4961 0.3159 -0.0702
v  0.4961 0.5208 -0.0702
v  0.4961 0.5208 0.0686
v  0.4961 0.3159 0.0686
v  0.4961 0.3159 0.2313
v  0.4961 0.5208 0.2313
v  0.4961 0.5208 0.3701
v  0.4961 0.3159 0.3701
v  0.3685 0.3159 0.4949
v  0.3685 0.5208 0.4949
v  0.2297 0.5208 0.4949
v  0.2297 0.3159 0.4949
v  0.0710 0.3159 0.4949
v  0.0710 0.5208 0.4949
v  -0.0678 0.5208 0.4949
v  -0.0678 0.3159 0.4949
v  -0.2306 0.3159 0.4949
v  -0.2306 0.5208 0.4949
v  -0.3694 0.5208 0.4949
v  -0.3694 0.3159 0.4949
v  -0.4908 0.0002 0.4889
v  -0.4908 0.0002 -0.4923
v  0.4917 0.0002 -0.4923
v  0.4917 0.0002 0.4889
v  -0.4908 0.6172 0.4889
v  0.4917 0.6172 0.4889
v  0.4917 0.6172 -0.4923
v  -0.4908 0.6172 -0.4923
# 56 vertices

vn -1.0000 -0.0000 -0.0000
vn -1.0000 0.0000 -0.0000
vn 0.0000 0.0000 -1.0000
vn 0.0000 -0.0000 -1.0000
vn 1.0000 0.0000 -0.0000
vn 0.0000 -0.0000 1.0000
vn -0.5774 -0.5774 0.5774
vn -0.5774 -0.5774 -0.5774
vn 0.5774 -0.5774 -0.5774
vn 0.5774 -0.5774 0.5774
vn -0.5774 0.5774 0.5774
vn 0.5774 0.5774 0.5774
vn 0.5774 0.5774 -0.5774
vn -0.5774 0.5774 -0.5774
# 14 vertex normals

vt 0.9000 0.9000 0.0000
vt 0.7000 0.9000 0.0000
vt 0.1000 0.7000 0.0000
# 3 texture coords

o House
g House
s 1
f 1/1/1 2/1/1 3/1/1 4/1/1 
s 4
f 5/2/1 6/2/2 7/2/2 8/2/1 
f 9/2/1 10/2/2 11/2/2 12/2/1 
f 13/2/3 14/2/4 15/2/4 16/2/3 
f 17/2/3 18/2/4 19/2/4 20/2/3 
f 21/2/3 22/2/4 23/2/4 24/2/3 
f 25/2/5 26/2/5 27/2/5 28/2/5 
f 29/2/5 30/2/5 31/2/5 32/2/5 
f 33/2/5 34/2/5 35/2/5 36/2/5 
f 37/2/6 38/2/6 39/2/6 40/2/6 
f 41/2/6 42/2/6 43/2/6 44/2/6 
f 45/2/6 46/2/6 47/2/6 48/2/6 
s 2
f 49/3/7 50/3/8 51/3/9 52/3/10 
s 4
f 53/3/11 54/3/12 55/3/13 56/3/14 
s 8
f 49/3/7 52/3/10 54/3/12 53/3/11 
s 16
f 52/3/10 51/3/9 55/3/13 54/3/12 
s 32
f 51/3/9 50/3/8 56/3/14 55/3/13 
s 64
f 50/3/8 49/3/7 53/3/11 56/3/14 
# 18 polygons

