# 3ds Max Wavefront OBJ Exporter v0.97b - (c)2007 guruware
# File Created: 15.08.2017 19:16:35

#
# object House
#

v  -0.4971 0.3675 -0.1062
v  -0.4971 0.0307 -0.1062
v  -0.4971 0.0307 0.1040
v  -0.4971 0.3675 0.1040
v  -0.4938 0.3159 -0.3770
v  -0.4938 0.3159 -0.2382
v  -0.4938 0.5208 -0.2382
v  -0.4938 0.5208 -0.3770
v  -0.4938 0.3159 0.2381
v  -0.4938 0.3159 0.3769
v  -0.4938 0.5208 0.3769
v  -0.4938 0.5208 0.2381
v  -0.2306 0.3159 -0.4958
v  -0.3694 0.3159 -0.4958
v  -0.3694 0.5208 -0.4958
v  -0.2306 0.5208 -0.4958
v  0.0710 0.3159 -0.4958
v  -0.0678 0.3159 -0.4958
v  -0.0678 0.5208 -0.4958
v  0.0710 0.5208 -0.4958
v  0.3685 0.3159 -0.4958
v  0.2297 0.3159 -0.4958
v  0.2297 0.5208 -0.4958
v  0.3685 0.5208 -0.4958
v  0.4961 0.3159 -0.3677
v  0.4961 0.5208 -0.3677
v  0.4961 0.5208 -0.2289
v  0.4961 0.3159 -0.2289
v  0.4961 0.3159 -0.0702
v  0.4961 0.5208 -0.0702
v  0.4961 0.5208 0.0686
v  0.4961 0.3159 0.0686
v  0.4961 0.3159 0.2313
v  0.4961 0.5208 0.2313
v  0.4961 0.5208 0.3701
v  0.4961 0.3159 0.3701
v  0.3685 0.3159 0.4949
v  0.3685 0.5208 0.4949
v  0.2297 0.5208 0.4949
v  0.2297 0.3159 0.4949
v  0.0710 0.3159 0.4949
v  0.0710 0.5208 0.4949
v  -0.0678 0.5208 0.4949
v  -0.0678 0.3159 0.4949
v  -0.2306 0.3159 0.4949
v  -0.2306 0.5208 0.4949
v  -0.3694 0.5208 0.4949
v  -0.3694 0.3159 0.4949
v  -0.4908 0.0002 0.4889
v  -0.4908 0.0002 -0.4923
v  0.4917 0.0002 -0.4923
v  0.4917 0.0002 0.4889
v  -0.4908 0.6172 0.4889
v  0.4917 0.6172 0.4889
v  0.4917 0.6172 -0.4923
v  -0.4908 0.6172 -0.4923
v  -0.4727 0.6166 0.4732
v  -0.4727 0.6166 -0.4744
v  0.4781 0.6166 -0.4744
v  0.4781 0.6166 0.4732
v  0.4779 0.7570 0.4730
v  -0.4726 0.7570 0.4730
v  0.4779 0.7570 -0.4743
v  -0.4726 0.7570 -0.4743
v  -0.4938 1.0638 -0.3770
v  -0.4938 1.0638 -0.2382
v  -0.4938 1.2688 -0.2382
v  -0.4938 1.2688 -0.3770
v  -0.4938 1.0638 0.2381
v  -0.4938 1.0638 0.3769
v  -0.4938 1.2688 0.3769
v  -0.4938 1.2688 0.2381
v  -0.2306 1.0638 -0.4958
v  -0.3694 1.0638 -0.4958
v  -0.3694 1.2688 -0.4958
v  -0.2306 1.2688 -0.4958
v  0.0710 1.0638 -0.4958
v  -0.0678 1.0638 -0.4958
v  -0.0678 1.2688 -0.4958
v  0.0710 1.2688 -0.4958
v  0.3685 1.0638 -0.4958
v  0.2297 1.0638 -0.4958
v  0.2297 1.2688 -0.4958
v  0.3685 1.2688 -0.4958
v  0.4961 1.0638 -0.3677
v  0.4961 1.2688 -0.3677
v  0.4961 1.2688 -0.2289
v  0.4961 1.0638 -0.2289
v  0.4961 1.0638 -0.0702
v  0.4961 1.2688 -0.0702
v  0.4961 1.2688 0.0686
v  0.4961 1.0638 0.0686
v  0.4961 1.0638 0.2313
v  0.4961 1.2688 0.2313
v  0.4961 1.2688 0.3701
v  0.4961 1.0638 0.3701
v  0.3685 1.0638 0.4949
v  0.3685 1.2688 0.4949
v  0.2297 1.2688 0.4949
v  0.2297 1.0638 0.4949
v  0.0710 1.0638 0.4949
v  0.0710 1.2688 0.4949
v  -0.0678 1.2688 0.4949
v  -0.0678 1.0638 0.4949
v  -0.2306 1.0638 0.4949
v  -0.2306 1.2688 0.4949
v  -0.3694 1.2688 0.4949
v  -0.3694 1.0638 0.4949
v  -0.4908 0.7481 0.4889
v  -0.4908 0.7481 -0.4923
v  0.4917 0.7481 -0.4923
v  0.4917 0.7481 0.4889
v  -0.4908 1.3652 0.4889
v  0.4917 1.3652 0.4889
v  0.4917 1.3652 -0.4923
v  -0.4908 1.3652 -0.4923
v  -0.4938 1.0638 -0.0698
v  -0.4938 1.0638 0.0690
v  -0.4938 1.2688 0.0690
v  -0.4938 1.2688 -0.0698
v  -0.4727 1.3536 0.4732
v  -0.4727 1.3536 -0.4744
v  0.4781 1.3536 -0.4744
v  0.4781 1.3536 0.4732
v  0.4779 1.4940 0.4730
v  -0.4726 1.4940 0.4730
v  0.4779 1.4940 -0.4743
v  -0.4726 1.4940 -0.4743
v  -0.4938 1.8008 -0.3770
v  -0.4938 1.8008 -0.2382
v  -0.4938 2.0058 -0.2382
v  -0.4938 2.0058 -0.3770
v  -0.4938 1.8008 0.2381
v  -0.4938 1.8008 0.3769
v  -0.4938 2.0058 0.3769
v  -0.4938 2.0058 0.2381
v  -0.2306 1.8008 -0.4958
v  -0.3694 1.8008 -0.4958
v  -0.3694 2.0058 -0.4958
v  -0.2306 2.0058 -0.4958
v  0.0710 1.8008 -0.4958
v  -0.0678 1.8008 -0.4958
v  -0.0678 2.0058 -0.4958
v  0.0710 2.0058 -0.4958
v  0.3685 1.8008 -0.4958
v  0.2297 1.8008 -0.4958
v  0.2297 2.0058 -0.4958
v  0.3685 2.0058 -0.4958
v  0.4961 1.8008 -0.3677
v  0.4961 2.0058 -0.3677
v  0.4961 2.0058 -0.2289
v  0.4961 1.8008 -0.2289
v  0.4961 1.8008 -0.0702
v  0.4961 2.0058 -0.0702
v  0.4961 2.0058 0.0686
v  0.4961 1.8008 0.0686
v  0.4961 1.8008 0.2313
v  0.4961 2.0058 0.2313
v  0.4961 2.0058 0.3701
v  0.4961 1.8008 0.3701
v  0.3685 1.8008 0.4949
v  0.3685 2.0058 0.4949
v  0.2297 2.0058 0.4949
v  0.2297 1.8008 0.4949
v  0.0710 1.8008 0.4949
v  0.0710 2.0058 0.4949
v  -0.0678 2.0058 0.4949
v  -0.0678 1.8008 0.4949
v  -0.2306 1.8008 0.4949
v  -0.2306 2.0058 0.4949
v  -0.3694 2.0058 0.4949
v  -0.3694 1.8008 0.4949
v  -0.4908 1.4851 0.4889
v  -0.4908 1.4851 -0.4923
v  0.4917 1.4851 -0.4923
v  0.4917 1.4851 0.4889
v  -0.4908 2.1022 0.4889
v  0.4917 2.1022 0.4889
v  0.4917 2.1022 -0.4923
v  -0.4908 2.1022 -0.4923
v  -0.4938 1.8008 -0.0698
v  -0.4938 1.8008 0.0690
v  -0.4938 2.0058 0.0690
v  -0.4938 2.0058 -0.0698
v  -0.4727 2.0959 0.4732
v  -0.4727 2.0959 -0.4744
v  0.4781 2.0959 -0.4744
v  0.4781 2.0959 0.4732
v  0.4779 2.2364 0.4730
v  -0.4726 2.2364 0.4730
v  0.4779 2.2364 -0.4743
v  -0.4726 2.2364 -0.4743
v  -0.4938 2.5431 -0.3770
v  -0.4938 2.5431 -0.2382
v  -0.4938 2.7481 -0.2382
v  -0.4938 2.7481 -0.3770
v  -0.4938 2.5431 0.2381
v  -0.4938 2.5431 0.3769
v  -0.4938 2.7481 0.3769
v  -0.4938 2.7481 0.2381
v  -0.2306 2.5431 -0.4958
v  -0.3694 2.5431 -0.4958
v  -0.3694 2.7481 -0.4958
v  -0.2306 2.7481 -0.4958
v  0.0710 2.5431 -0.4958
v  -0.0678 2.5431 -0.4958
v  -0.0678 2.7481 -0.4958
v  0.0710 2.7481 -0.4958
v  0.3685 2.5431 -0.4958
v  0.2297 2.5431 -0.4958
v  0.2297 2.7481 -0.4958
v  0.3685 2.7481 -0.4958
v  0.4961 2.5431 -0.3677
v  0.4961 2.7481 -0.3677
v  0.4961 2.7481 -0.2289
v  0.4961 2.5431 -0.2289
v  0.4961 2.5431 -0.0702
v  0.4961 2.7481 -0.0702
v  0.4961 2.7481 0.0686
v  0.4961 2.5431 0.0686
v  0.4961 2.5431 0.2313
v  0.4961 2.7481 0.2313
v  0.4961 2.7481 0.3701
v  0.4961 2.5431 0.3701
v  0.3685 2.5431 0.4949
v  0.3685 2.7481 0.4949
v  0.2297 2.7481 0.4949
v  0.2297 2.5431 0.4949
v  0.0710 2.5431 0.4949
v  0.0710 2.7481 0.4949
v  -0.0678 2.7481 0.4949
v  -0.0678 2.5431 0.4949
v  -0.2306 2.5431 0.4949
v  -0.2306 2.7481 0.4949
v  -0.3694 2.7481 0.4949
v  -0.3694 2.5431 0.4949
v  -0.4908 2.2274 0.4889
v  -0.4908 2.2274 -0.4923
v  0.4917 2.2274 -0.4923
v  0.4917 2.2274 0.4889
v  -0.4908 2.8445 0.4889
v  0.4917 2.8445 0.4889
v  0.4917 2.8445 -0.4923
v  -0.4908 2.8445 -0.4923
v  -0.4938 2.5431 -0.0698
v  -0.4938 2.5431 0.0690
v  -0.4938 2.7481 0.0690
v  -0.4938 2.7481 -0.0698
# 248 vertices

vn -1.0000 -0.0000 -0.0000
vn -1.0000 0.0000 -0.0000
vn 0.0000 0.0000 -1.0000
vn 0.0000 -0.0000 -1.0000
vn 1.0000 0.0000 -0.0000
vn 0.0000 -0.0000 1.0000
vn -0.5774 -0.5774 0.5774
vn -0.5774 -0.5774 -0.5774
vn 0.5774 -0.5774 -0.5774
vn 0.5774 -0.5774 0.5774
vn -0.5774 0.5774 0.5774
vn 0.5774 0.5774 0.5774
vn 0.5774 0.5774 -0.5774
vn -0.5774 0.5774 -0.5774
vn -0.5775 -0.5767 0.5778
vn -0.5776 -0.5771 -0.5773
vn 0.5777 -0.5770 -0.5773
vn 0.5776 -0.5767 0.5778
vn 0.7072 0.0018 0.7070
vn -0.7072 0.0016 0.7070
vn 0.7069 0.0009 -0.7074
vn -0.7069 0.0007 -0.7073
# 22 vertex normals

vt 0.9000 0.9000 0.0000
vt 0.7000 0.9000 0.0000
vt 0.3000 0.7000 0.0000
vt 0.3000 0.9000 0.0000
# 4 texture coords

o House
g House
s 1
f 1/1/1 2/1/1 3/1/1 4/1/1 
s 4
f 5/2/1 6/2/2 7/2/2 8/2/1 
f 9/2/1 10/2/2 11/2/2 12/2/1 
f 13/2/3 14/2/4 15/2/4 16/2/3 
f 17/2/3 18/2/4 19/2/4 20/2/3 
f 21/2/3 22/2/4 23/2/4 24/2/3 
f 25/2/5 26/2/5 27/2/5 28/2/5 
f 29/2/5 30/2/5 31/2/5 32/2/5 
f 33/2/5 34/2/5 35/2/5 36/2/5 
f 37/2/6 38/2/6 39/2/6 40/2/6 
f 41/2/6 42/2/6 43/2/6 44/2/6 
f 45/2/6 46/2/6 47/2/6 48/2/6 
s 2
f 49/3/7 50/3/8 51/3/9 52/3/10 
s 4
f 53/3/11 54/3/12 55/3/13 56/3/14 
s 8
f 49/3/7 52/3/10 54/3/12 53/3/11 
s 16
f 52/3/10 51/3/9 55/3/13 54/3/12 
s 32
f 51/3/9 50/3/8 56/3/14 55/3/13 
s 64
f 50/3/8 49/3/7 53/3/11 56/3/14 
s 2
f 57/4/15 58/4/16 59/4/17 60/4/18 
s 8
f 57/4/15 60/4/18 61/4/19 62/4/20 
s 16
f 60/4/18 59/4/17 63/4/21 61/4/19 
s 32
f 59/4/17 58/4/16 64/4/22 63/4/21 
s 64
f 58/4/16 57/4/15 62/4/20 64/4/22 
s 4
f 65/2/1 66/2/2 67/2/2 68/2/1 
f 69/2/1 70/2/2 71/2/2 72/2/1 
f 73/2/3 74/2/4 75/2/4 76/2/3 
f 77/2/3 78/2/4 79/2/4 80/2/3 
f 81/2/3 82/2/4 83/2/4 84/2/3 
f 85/2/5 86/2/5 87/2/5 88/2/5 
f 89/2/5 90/2/5 91/2/5 92/2/5 
f 93/2/5 94/2/5 95/2/5 96/2/5 
f 97/2/6 98/2/6 99/2/6 100/2/6 
f 101/2/6 102/2/6 103/2/6 104/2/6 
f 105/2/6 106/2/6 107/2/6 108/2/6 
s 2
f 109/3/7 110/3/8 111/3/9 112/3/10 
s 4
f 113/3/11 114/3/12 115/3/13 116/3/14 
s 8
f 109/3/7 112/3/10 114/3/12 113/3/11 
s 16
f 112/3/10 111/3/9 115/3/13 114/3/12 
s 32
f 111/3/9 110/3/8 116/3/14 115/3/13 
s 64
f 110/3/8 109/3/7 113/3/11 116/3/14 
s 4
f 117/2/1 118/2/2 119/2/2 120/2/1 
s 2
f 121/4/15 122/4/16 123/4/17 124/4/18 
s 8
f 121/4/15 124/4/18 125/4/19 126/4/20 
s 16
f 124/4/18 123/4/17 127/4/21 125/4/19 
s 32
f 123/4/17 122/4/16 128/4/22 127/4/21 
s 64
f 122/4/16 121/4/15 126/4/20 128/4/22 
s 4
f 129/2/1 130/2/2 131/2/2 132/2/1 
f 133/2/1 134/2/2 135/2/2 136/2/1 
f 137/2/3 138/2/4 139/2/4 140/2/3 
f 141/2/3 142/2/4 143/2/4 144/2/3 
f 145/2/3 146/2/4 147/2/4 148/2/3 
f 149/2/5 150/2/5 151/2/5 152/2/5 
f 153/2/5 154/2/5 155/2/5 156/2/5 
f 157/2/5 158/2/5 159/2/5 160/2/5 
f 161/2/6 162/2/6 163/2/6 164/2/6 
f 165/2/6 166/2/6 167/2/6 168/2/6 
f 169/2/6 170/2/6 171/2/6 172/2/6 
s 2
f 173/3/7 174/3/8 175/3/9 176/3/10 
s 4
f 177/3/11 178/3/12 179/3/13 180/3/14 
s 8
f 173/3/7 176/3/10 178/3/12 177/3/11 
s 16
f 176/3/10 175/3/9 179/3/13 178/3/12 
s 32
f 175/3/9 174/3/8 180/3/14 179/3/13 
s 64
f 174/3/8 173/3/7 177/3/11 180/3/14 
s 4
f 181/2/1 182/2/2 183/2/2 184/2/1 
s 2
f 185/4/15 186/4/16 187/4/17 188/4/18 
s 8
f 185/4/15 188/4/18 189/4/19 190/4/20 
s 16
f 188/4/18 187/4/17 191/4/21 189/4/19 
s 32
f 187/4/17 186/4/16 192/4/22 191/4/21 
s 64
f 186/4/16 185/4/15 190/4/20 192/4/22 
s 4
f 193/2/1 194/2/2 195/2/2 196/2/1 
f 197/2/1 198/2/2 199/2/2 200/2/1 
f 201/2/3 202/2/4 203/2/4 204/2/3 
f 205/2/3 206/2/4 207/2/4 208/2/3 
f 209/2/3 210/2/4 211/2/4 212/2/3 
f 213/2/5 214/2/5 215/2/5 216/2/5 
f 217/2/5 218/2/5 219/2/5 220/2/5 
f 221/2/5 222/2/5 223/2/5 224/2/5 
f 225/2/6 226/2/6 227/2/6 228/2/6 
f 229/2/6 230/2/6 231/2/6 232/2/6 
f 233/2/6 234/2/6 235/2/6 236/2/6 
s 2
f 237/3/7 238/3/8 239/3/9 240/3/10 
s 4
f 241/3/11 242/3/12 243/3/13 244/3/14 
s 8
f 237/3/7 240/3/10 242/3/12 241/3/11 
s 16
f 240/3/10 239/3/9 243/3/13 242/3/12 
s 32
f 239/3/9 238/3/8 244/3/14 243/3/13 
s 64
f 238/3/8 237/3/7 241/3/11 244/3/14 
s 4
f 245/2/1 246/2/2 247/2/2 248/2/1 
# 87 polygons

