# 3ds Max Wavefront OBJ Exporter v0.97b - (c)2007 guruware
# File Created: 14.08.2017 21:06:15

#
# object House
#

v  -0.4740 0.7697 0.4921
v  0.4740 0.7697 0.4921
v  0.4740 1.3514 0.4921
v  -0.4740 1.3514 0.4921
v  0.4921 0.7697 0.4740
v  0.4921 0.7697 -0.4740
v  0.4921 1.3514 -0.4740
v  0.4921 1.3514 0.4740
v  0.4740 0.7697 -0.4921
v  -0.4740 0.7697 -0.4921
v  -0.4740 1.3514 -0.4921
v  0.4740 1.3514 -0.4921
v  -0.4921 0.7697 -0.4740
v  -0.4921 0.7697 0.4740
v  -0.4921 1.3514 0.4740
v  -0.4921 1.3514 -0.4740
v  -0.4740 0.7516 0.4740
v  0.4740 0.7516 0.4740
v  -0.4740 0.7516 -0.4740
v  0.4740 0.7516 -0.4740
v  -0.4740 1.3696 0.4740
v  0.4740 1.3696 0.4740
v  -0.4740 1.3696 -0.4740
v  0.4740 1.3696 -0.4740
v  -0.4938 0.9764 -0.3770
v  -0.4938 0.9764 -0.2382
v  -0.4938 1.1814 -0.2382
v  -0.4938 1.1814 -0.3770
v  -0.4938 0.9764 0.2381
v  -0.4938 0.9764 0.3769
v  -0.4938 1.1814 0.3769
v  -0.4938 1.1814 0.2381
v  -0.2306 0.9764 -0.4958
v  -0.3694 0.9764 -0.4958
v  -0.3694 1.1814 -0.4958
v  -0.2306 1.1814 -0.4958
v  0.0710 0.9764 -0.4958
v  -0.0678 0.9764 -0.4958
v  -0.0678 1.1814 -0.4958
v  0.0710 1.1814 -0.4958
v  0.3685 0.9764 -0.4958
v  0.2297 0.9764 -0.4958
v  0.2297 1.1814 -0.4958
v  0.3685 1.1814 -0.4958
v  0.4961 0.9764 -0.3677
v  0.4961 1.1814 -0.3677
v  0.4961 1.1814 -0.2289
v  0.4961 0.9764 -0.2289
v  0.4961 0.9764 -0.0702
v  0.4961 1.1814 -0.0702
v  0.4961 1.1814 0.0686
v  0.4961 0.9764 0.0686
v  0.4961 0.9764 0.2313
v  0.4961 1.1814 0.2313
v  0.4961 1.1814 0.3701
v  0.4961 0.9764 0.3701
v  0.3685 0.9764 0.4949
v  0.3685 1.1814 0.4949
v  0.2297 1.1814 0.4949
v  0.2297 0.9764 0.4949
v  0.0710 0.9764 0.4949
v  0.0710 1.1814 0.4949
v  -0.0678 1.1814 0.4949
v  -0.0678 0.9764 0.4949
v  -0.2306 0.9764 0.4949
v  -0.2306 1.1814 0.4949
v  -0.3694 1.1814 0.4949
v  -0.3694 0.9764 0.4949
v  -0.4938 0.9764 -0.0705
v  -0.4938 0.9764 0.0683
v  -0.4938 1.1814 0.0683
v  -0.4938 1.1814 -0.0705
v  -0.4727 0.6166 0.4732
v  0.4781 0.6166 0.4732
v  0.4779 0.7570 0.4730
v  -0.4726 0.7570 0.4730
v  0.4781 0.6166 -0.4744
v  0.4779 0.7570 -0.4743
v  -0.4727 0.6166 -0.4744
v  -0.4726 0.7570 -0.4743
v  -0.4740 0.0005 0.4740
v  -0.4740 0.0005 -0.4740
v  0.4740 0.0005 -0.4740
v  0.4740 0.0005 0.4740
v  -0.4740 0.0187 0.4921
v  0.4740 0.0187 0.4921
v  0.4740 0.6004 0.4921
v  -0.4740 0.6004 0.4921
v  0.4921 0.0187 0.4740
v  0.4921 0.0187 -0.4740
v  0.4921 0.6004 -0.4740
v  0.4921 0.6004 0.4740
v  0.4740 0.0187 -0.4921
v  -0.4740 0.0187 -0.4921
v  -0.4740 0.6004 -0.4921
v  0.4740 0.6004 -0.4921
v  -0.4921 0.0187 -0.4740
v  -0.4921 0.0187 0.4740
v  -0.4921 0.6004 0.4740
v  -0.4921 0.6004 -0.4740
v  -0.4740 0.6186 0.4740
v  0.4740 0.6186 0.4740
v  -0.4740 0.6186 -0.4740
v  0.4740 0.6186 -0.4740
v  -0.5183 0.0442 -0.1137
v  -0.5192 0.0441 -0.0952
v  -0.5192 0.3636 -0.0952
v  -0.5183 0.3805 -0.1137
v  -0.4912 0.0441 -0.0952
v  -0.4912 0.3636 -0.0952
v  -0.4921 0.3805 -0.1137
v  -0.4921 0.0442 -0.1137
v  -0.5183 0.3809 0.1123
v  -0.4921 0.3809 0.1123
v  -0.5192 0.3626 0.0927
v  -0.4912 0.3626 0.0927
v  -0.5183 0.0442 0.1127
v  -0.4921 0.0442 0.1127
v  -0.5192 0.0441 0.0934
v  -0.4912 0.0441 0.0934
v  -0.4971 0.3675 -0.1062
v  -0.4971 0.0307 -0.1062
v  -0.4971 0.0307 0.1040
v  -0.4971 0.3675 0.1040
v  -0.4938 0.3159 -0.3770
v  -0.4938 0.3159 -0.2382
v  -0.4938 0.5208 -0.2382
v  -0.4938 0.5208 -0.3770
v  -0.4938 0.3159 0.2381
v  -0.4938 0.3159 0.3769
v  -0.4938 0.5208 0.3769
v  -0.4938 0.5208 0.2381
v  -0.2306 0.3159 -0.4958
v  -0.3694 0.3159 -0.4958
v  -0.3694 0.5208 -0.4958
v  -0.2306 0.5208 -0.4958
v  0.0710 0.3159 -0.4958
v  -0.0678 0.3159 -0.4958
v  -0.0678 0.5208 -0.4958
v  0.0710 0.5208 -0.4958
v  0.3685 0.3159 -0.4958
v  0.2297 0.3159 -0.4958
v  0.2297 0.5208 -0.4958
v  0.3685 0.5208 -0.4958
v  0.4961 0.3159 -0.3677
v  0.4961 0.5208 -0.3677
v  0.4961 0.5208 -0.2289
v  0.4961 0.3159 -0.2289
v  0.4961 0.3159 -0.0702
v  0.4961 0.5208 -0.0702
v  0.4961 0.5208 0.0686
v  0.4961 0.3159 0.0686
v  0.4961 0.3159 0.2313
v  0.4961 0.5208 0.2313
v  0.4961 0.5208 0.3701
v  0.4961 0.3159 0.3701
v  0.3685 0.3159 0.4949
v  0.3685 0.5208 0.4949
v  0.2297 0.5208 0.4949
v  0.2297 0.3159 0.4949
v  0.0710 0.3159 0.4949
v  0.0710 0.5208 0.4949
v  -0.0678 0.5208 0.4949
v  -0.0678 0.3159 0.4949
v  -0.2306 0.3159 0.4949
v  -0.2306 0.5208 0.4949
v  -0.3694 0.5208 0.4949
v  -0.3694 0.3159 0.4949
v  -0.4687 0.0003 -0.1370
v  -0.4687 0.0455 -0.1370
v  -0.4687 0.0455 0.1355
v  -0.4687 0.0003 0.1355
v  -0.5564 0.0003 -0.1370
v  -0.5564 0.0003 0.1355
v  -0.5564 0.0455 0.1355
v  -0.5564 0.0455 -0.1370
v  -0.4740 1.5024 0.4740
v  -0.4740 1.5024 -0.4740
v  0.4740 1.5024 -0.4740
v  0.4740 1.5024 0.4740
v  -0.4740 1.5205 0.4921
v  0.4740 1.5205 0.4921
v  0.4740 2.1023 0.4921
v  -0.4740 2.1023 0.4921
v  0.4921 1.5205 0.4740
v  0.4921 1.5205 -0.4740
v  0.4921 2.1023 -0.4740
v  0.4921 2.1023 0.4740
v  0.4740 1.5205 -0.4921
v  -0.4740 1.5205 -0.4921
v  -0.4740 2.1023 -0.4921
v  0.4740 2.1023 -0.4921
v  -0.4921 1.5205 -0.4740
v  -0.4921 1.5205 0.4740
v  -0.4921 2.1023 0.4740
v  -0.4921 2.1023 -0.4740
v  -0.4740 2.1204 0.4740
v  0.4740 2.1204 0.4740
v  -0.4740 2.1204 -0.4740
v  0.4740 2.1204 -0.4740
v  -0.4938 1.7272 -0.3770
v  -0.4938 1.7272 -0.2382
v  -0.4938 1.9322 -0.2382
v  -0.4938 1.9322 -0.3770
v  -0.4938 1.7272 0.2381
v  -0.4938 1.7272 0.3769
v  -0.4938 1.9322 0.3769
v  -0.4938 1.9322 0.2381
v  -0.2306 1.7272 -0.4958
v  -0.3694 1.7272 -0.4958
v  -0.3694 1.9322 -0.4958
v  -0.2306 1.9322 -0.4958
v  0.0710 1.7272 -0.4958
v  -0.0678 1.7272 -0.4958
v  -0.0678 1.9322 -0.4958
v  0.0710 1.9322 -0.4958
v  0.3685 1.7272 -0.4958
v  0.2297 1.7272 -0.4958
v  0.2297 1.9322 -0.4958
v  0.3685 1.9322 -0.4958
v  0.4961 1.7272 -0.3677
v  0.4961 1.9322 -0.3677
v  0.4961 1.9322 -0.2289
v  0.4961 1.7272 -0.2289
v  0.4961 1.7272 -0.0702
v  0.4961 1.9322 -0.0702
v  0.4961 1.9322 0.0686
v  0.4961 1.7272 0.0686
v  0.4961 1.7272 0.2313
v  0.4961 1.9322 0.2313
v  0.4961 1.9322 0.3701
v  0.4961 1.7272 0.3701
v  0.3685 1.7272 0.4949
v  0.3685 1.9322 0.4949
v  0.2297 1.9322 0.4949
v  0.2297 1.7272 0.4949
v  0.0710 1.7272 0.4949
v  0.0710 1.9322 0.4949
v  -0.0678 1.9322 0.4949
v  -0.0678 1.7272 0.4949
v  -0.2306 1.7272 0.4949
v  -0.2306 1.9322 0.4949
v  -0.3694 1.9322 0.4949
v  -0.3694 1.7272 0.4949
v  0.4533 2.0865 0.4533
v  0.4533 2.0865 -0.4533
v  -0.4533 2.0865 -0.4533
v  -0.4533 2.0865 0.4533
v  -0.4938 1.7272 -0.0705
v  -0.4938 1.7272 0.0683
v  -0.4938 1.9322 0.0683
v  -0.4938 1.9322 -0.0705
v  -0.4727 1.3674 0.4732
v  0.4781 1.3674 0.4732
v  0.4779 1.5079 0.4730
v  -0.4726 1.5079 0.4730
v  0.4781 1.3674 -0.4744
v  0.4779 1.5079 -0.4743
v  -0.4727 1.3674 -0.4744
v  -0.4726 1.5079 -0.4743
# 260 vertices

vn -0.3416 -0.3416 0.8756
vn 0.3416 -0.3416 0.8756
vn 0.3416 0.3416 0.8756
vn -0.3416 0.3416 0.8756
vn 0.8756 -0.3416 0.3416
vn 0.8756 -0.3416 -0.3416
vn 0.8756 0.3416 -0.3416
vn 0.8756 0.3416 0.3416
vn 0.3416 -0.3416 -0.8756
vn -0.3416 -0.3416 -0.8756
vn -0.3416 0.3416 -0.8756
vn 0.3416 0.3416 -0.8756
vn -0.8756 -0.3416 -0.3416
vn -0.8756 -0.3416 0.3416
vn -0.8756 0.3416 0.3416
vn -0.8756 0.3416 -0.3416
vn -0.4606 -0.7588 0.4606
vn 0.4606 -0.7588 0.4606
vn -0.4606 -0.7588 -0.4606
vn 0.4606 -0.7588 -0.4606
vn -0.4606 0.7588 0.4606
vn 0.4606 0.7588 0.4606
vn -0.4606 0.7588 -0.4606
vn 0.4606 0.7588 -0.4606
vn -1.0000 -0.0000 -0.0000
vn -1.0000 0.0000 -0.0000
vn 0.0000 0.0000 -1.0000
vn 0.0000 -0.0000 -1.0000
vn 1.0000 0.0000 -0.0000
vn 0.0000 -0.0000 1.0000
vn -0.7070 0.0016 0.7072
vn 0.7070 0.0018 0.7072
vn 0.7072 0.0018 0.7070
vn -0.7072 0.0016 0.7070
vn 0.7074 0.0009 -0.7069
vn 0.7069 0.0009 -0.7074
vn -0.7073 0.0007 -0.7069
vn -0.7069 0.0007 -0.7073
vn -0.3416 -0.8756 0.3416
vn -0.3416 -0.8756 -0.3416
vn 0.3416 -0.8756 -0.3416
vn 0.3416 -0.8756 0.3416
vn -0.6909 -0.0000 -0.7229
vn -0.7228 -0.0000 0.6910
vn -0.9170 -0.2812 0.2828
vn -0.5677 0.5814 -0.5827
vn -0.0000 0.0000 1.0000
vn -0.0000 -0.7089 0.7053
vn 0.0000 0.7065 -0.7077
vn -0.5683 0.5825 0.5811
vn 0.0000 0.7081 0.7061
vn -0.9149 -0.2840 -0.2869
vn -0.0000 -0.7060 -0.7082
vn -0.6914 0.0009 0.7225
vn 0.0000 0.0012 1.0000
vn -0.7226 -0.0014 -0.6912
vn -0.0000 -0.0021 -1.0000
vn 0.7071 0.0000 -0.7071
vn 0.5774 0.5774 -0.5774
vn 0.5773 0.5774 0.5774
vn 0.7071 0.0000 0.7071
vn -0.7071 -0.0000 -0.7071
vn -0.7071 0.0000 0.7071
vn -0.5774 0.5774 0.5774
vn -0.5774 0.5773 -0.5774
vn -0.1905 0.9630 0.1905
vn 0.1905 0.9630 0.1905
vn -0.1905 0.9630 -0.1905
vn 0.1905 0.9630 -0.1905
vn -0.3929 0.8314 -0.3929
vn -0.3929 0.8314 0.3929
vn 0.3929 0.8314 0.3929
vn 0.3929 0.8314 -0.3929
# 73 vertex normals

vt 0.3000 0.7000 0.0000
vt 0.7000 0.9000 0.0000
vt 0.3000 0.9000 0.0000
vt 0.5000 0.9000 0.0000
vt 0.1000 0.9000 0.0000
vt 0.9000 0.9000 0.0000
# 6 texture coords

o House
g House
s 1
f 1/1/1 2/1/2 3/1/3 4/1/4 
f 5/1/5 6/1/6 7/1/7 8/1/8 
f 9/1/9 10/1/10 11/1/11 12/1/12 
f 13/1/13 14/1/14 15/1/15 16/1/16 
s 2
f 1/1/1 14/1/14 17/1/17 
f 18/1/18 5/1/5 2/1/2 
f 13/1/13 10/1/10 19/1/19 
f 20/1/20 9/1/9 6/1/6 
f 4/1/4 21/1/21 15/1/15 
f 8/1/8 22/1/22 3/1/3 
f 16/1/16 23/1/23 11/1/11 
f 12/1/12 24/1/24 7/1/7 
s 4
f 17/1/17 14/1/14 13/1/13 19/1/19 
s 8
f 19/1/19 10/1/10 9/1/9 20/1/20 
s 4
f 20/1/20 6/1/6 5/1/5 18/1/18 
s 8
f 18/1/18 2/1/2 1/1/1 17/1/17 
s 4
f 21/1/21 4/1/4 3/1/3 22/1/22 
s 8
f 22/1/22 8/1/8 7/1/7 24/1/24 
s 4
f 24/1/24 12/1/12 11/1/11 23/1/23 
s 8
f 23/1/23 16/1/16 15/1/15 21/1/21 
s 16
f 2/1/2 5/1/5 8/1/8 3/1/3 
f 4/1/4 15/1/15 14/1/14 1/1/1 
f 6/1/6 9/1/9 12/1/12 7/1/7 
f 10/1/10 13/1/13 16/1/16 11/1/11 
s 4
f 25/2/25 26/2/26 27/2/26 28/2/25 
f 29/2/25 30/2/26 31/2/26 32/2/25 
f 33/2/27 34/2/28 35/2/28 36/2/27 
f 37/2/27 38/2/28 39/2/28 40/2/27 
f 41/2/27 42/2/28 43/2/28 44/2/27 
f 45/2/29 46/2/29 47/2/29 48/2/29 
f 49/2/29 50/2/29 51/2/29 52/2/29 
f 53/2/29 54/2/29 55/2/29 56/2/29 
f 57/2/30 58/2/30 59/2/30 60/2/30 
f 61/2/30 62/2/30 63/2/30 64/2/30 
f 65/2/30 66/2/30 67/2/30 68/2/30 
f 69/2/25 70/2/26 71/2/26 72/2/25 
s 8
f 73/3/31 74/3/32 75/3/33 76/3/34 
s 16
f 74/3/32 77/3/35 78/3/36 75/3/33 
s 32
f 77/3/35 79/3/37 80/3/38 78/3/36 
s 64
f 79/3/37 73/3/31 76/3/34 80/3/38 
s 1
f 81/1/39 82/1/40 83/1/41 84/1/42 
f 85/1/1 86/1/2 87/1/3 88/1/4 
f 89/1/5 90/1/6 91/1/7 92/1/8 
f 93/1/9 94/1/10 95/1/11 96/1/12 
f 97/1/13 98/1/14 99/1/15 100/1/16 
s 2
f 85/1/1 98/1/14 81/1/39 
f 84/1/42 89/1/5 86/1/2 
f 97/1/13 94/1/10 82/1/40 
f 83/1/41 93/1/9 90/1/6 
f 88/1/4 101/1/21 99/1/15 
f 92/1/8 102/1/22 87/1/3 
f 100/1/16 103/1/23 95/1/11 
f 96/1/12 104/1/24 91/1/7 
s 4
f 81/1/39 98/1/14 97/1/13 82/1/40 
s 8
f 82/1/40 94/1/10 93/1/9 83/1/41 
s 4
f 83/1/41 90/1/6 89/1/5 84/1/42 
s 8
f 84/1/42 86/1/2 85/1/1 81/1/39 
s 4
f 101/1/21 88/1/4 87/1/3 102/1/22 
s 8
f 102/1/22 92/1/8 91/1/7 104/1/24 
s 4
f 104/1/24 96/1/12 95/1/11 103/1/23 
s 8
f 103/1/23 100/1/16 99/1/15 101/1/21 
s 16
f 86/1/2 89/1/5 92/1/8 87/1/3 
f 88/1/4 99/1/15 98/1/14 85/1/1 
f 90/1/6 93/1/9 96/1/12 91/1/7 
f 94/1/10 97/1/13 100/1/16 95/1/11 
s 4
f 105/4/43 106/4/44 107/4/45 108/4/46 
s 16
f 109/5/47 110/5/48 107/5/45 106/5/44 
s 64
f 111/4/49 112/4/28 105/4/43 108/4/46 
s off
f 111/4/49 108/4/46 113/4/50 114/4/51 
f 108/4/46 107/4/45 115/4/52 113/4/50 
f 107/5/45 110/5/48 116/5/53 115/5/52 
f 114/4/51 113/4/50 117/4/54 118/4/55 
f 113/4/50 115/4/52 119/4/56 117/4/54 
f 115/4/52 116/4/53 120/4/57 119/4/56 
s 1
f 121/6/25 122/6/25 123/6/25 124/6/25 
s 4
f 125/2/25 126/2/26 127/2/26 128/2/25 
f 129/2/25 130/2/26 131/2/26 132/2/25 
f 133/2/27 134/2/28 135/2/28 136/2/27 
f 137/2/27 138/2/28 139/2/28 140/2/27 
f 141/2/27 142/2/28 143/2/28 144/2/27 
f 145/2/29 146/2/29 147/2/29 148/2/29 
f 149/2/29 150/2/29 151/2/29 152/2/29 
f 153/2/29 154/2/29 155/2/29 156/2/29 
f 157/2/30 158/2/30 159/2/30 160/2/30 
f 161/2/30 162/2/30 163/2/30 164/2/30 
f 165/2/30 166/2/30 167/2/30 168/2/30 
s 2
f 169/5/58 170/5/59 171/5/60 172/5/61 
s 4
f 173/3/62 174/3/63 175/3/64 176/3/65 
s 16
f 172/3/61 171/3/60 175/3/64 174/3/63 
s 32
f 171/3/60 170/3/59 176/3/65 175/3/64 
s 64
f 170/3/59 169/3/58 173/3/62 176/3/65 
s 1
f 177/1/39 178/1/40 179/1/41 180/1/42 
f 181/1/1 182/1/2 183/1/3 184/1/4 
f 185/1/5 186/1/6 187/1/7 188/1/8 
f 189/1/9 190/1/10 191/1/11 192/1/12 
f 193/1/13 194/1/14 195/1/15 196/1/16 
s 2
f 181/1/1 194/1/14 177/1/39 
f 180/1/42 185/1/5 182/1/2 
f 193/1/13 190/1/10 178/1/40 
f 179/1/41 189/1/9 186/1/6 
f 184/1/4 197/1/66 195/1/15 
f 188/1/8 198/1/67 183/1/3 
f 196/1/16 199/1/68 191/1/11 
f 192/1/12 200/1/69 187/1/7 
s 4
f 177/1/39 194/1/14 193/1/13 178/1/40 
s 8
f 178/1/40 190/1/10 189/1/9 179/1/41 
s 4
f 179/1/41 186/1/6 185/1/5 180/1/42 
s 8
f 180/1/42 182/1/2 181/1/1 177/1/39 
s 4
f 197/1/66 184/1/4 183/1/3 198/1/67 
s 8
f 198/1/67 188/1/8 187/1/7 200/1/69 
s 4
f 200/1/69 192/1/12 191/1/11 199/1/68 
s 8
f 199/1/68 196/1/16 195/1/15 197/1/66 
s 16
f 182/1/2 185/1/5 188/1/8 183/1/3 
f 184/1/4 195/1/15 194/1/14 181/1/1 
f 186/1/6 189/1/9 192/1/12 187/1/7 
f 190/1/10 193/1/13 196/1/16 191/1/11 
s 4
f 201/2/25 202/2/26 203/2/26 204/2/25 
f 205/2/25 206/2/26 207/2/26 208/2/25 
f 209/2/27 210/2/28 211/2/28 212/2/27 
f 213/2/27 214/2/28 215/2/28 216/2/27 
f 217/2/27 218/2/28 219/2/28 220/2/27 
f 221/2/29 222/2/29 223/2/29 224/2/29 
f 225/2/29 226/2/29 227/2/29 228/2/29 
f 229/2/29 230/2/29 231/2/29 232/2/29 
f 233/2/30 234/2/30 235/2/30 236/2/30 
f 237/2/30 238/2/30 239/2/30 240/2/30 
f 241/2/30 242/2/30 243/2/30 244/2/30 
s off
f 245/1/70 246/1/71 247/1/72 
f 245/1/70 247/1/72 248/1/73 
s 4
f 249/2/25 250/2/26 251/2/26 252/2/25 
s off
f 197/1/66 198/1/67 245/1/70 248/1/73 
f 198/1/67 200/1/69 246/1/71 245/1/70 
f 200/1/69 199/1/68 247/1/72 246/1/71 
f 199/1/68 197/1/66 248/1/73 247/1/72 
s 8
f 253/3/31 254/3/32 255/3/33 256/3/34 
s 16
f 254/3/32 257/3/35 258/3/36 255/3/33 
s 32
f 257/3/35 259/3/37 260/3/38 258/3/36 
s 64
f 259/3/37 253/3/31 256/3/34 260/3/38 
# 112 polygons - 26 triangles

