# 3ds Max Wavefront OBJ Exporter v0.97b - (c)2007 guruware
# File Created: 14.08.2017 21:04:16

#
# object House
#

v  -0.4740 0.0005 0.4740
v  -0.4740 0.0005 -0.4740
v  0.4740 0.0005 -0.4740
v  0.4740 0.0005 0.4740
v  -0.4625 0.5892 0.4625
v  0.4625 0.5892 0.4625
v  0.4625 0.5892 -0.4625
v  -0.4625 0.5892 -0.4625
v  -0.4740 0.0187 0.4921
v  0.4740 0.0187 0.4921
v  0.4740 0.6004 0.4921
v  -0.4740 0.6004 0.4921
v  0.4921 0.0187 0.4740
v  0.4921 0.0187 -0.4740
v  0.4921 0.6004 -0.4740
v  0.4921 0.6004 0.4740
v  0.4740 0.0187 -0.4921
v  -0.4740 0.0187 -0.4921
v  -0.4740 0.6004 -0.4921
v  0.4740 0.6004 -0.4921
v  -0.4921 0.0187 -0.4740
v  -0.4921 0.0187 0.4740
v  -0.4921 0.6004 0.4740
v  -0.4921 0.6004 -0.4740
v  -0.4740 0.6186 0.4740
v  0.4740 0.6186 0.4740
v  -0.4740 0.6186 -0.4740
v  0.4740 0.6186 -0.4740
v  -0.5183 0.0442 -0.1137
v  -0.5192 0.0441 -0.0952
v  -0.5192 0.3636 -0.0952
v  -0.5183 0.3805 -0.1137
v  -0.4912 0.0441 -0.0952
v  -0.4912 0.3636 -0.0952
v  -0.4921 0.3805 -0.1137
v  -0.4921 0.0442 -0.1137
v  -0.5183 0.3809 0.1123
v  -0.4921 0.3809 0.1123
v  -0.5192 0.3626 0.0927
v  -0.4912 0.3626 0.0927
v  -0.5183 0.0442 0.1127
v  -0.4921 0.0442 0.1127
v  -0.5192 0.0441 0.0934
v  -0.4912 0.0441 0.0934
v  -0.4971 0.3675 -0.1062
v  -0.4971 0.0307 -0.1062
v  -0.4971 0.0307 0.1040
v  -0.4971 0.3675 0.1040
v  -0.4938 0.3159 -0.3770
v  -0.4938 0.3159 -0.2382
v  -0.4938 0.5208 -0.2382
v  -0.4938 0.5208 -0.3770
v  -0.4938 0.3159 0.2381
v  -0.4938 0.3159 0.3769
v  -0.4938 0.5208 0.3769
v  -0.4938 0.5208 0.2381
v  -0.2306 0.3159 -0.4958
v  -0.3694 0.3159 -0.4958
v  -0.3694 0.5208 -0.4958
v  -0.2306 0.5208 -0.4958
v  0.0710 0.3159 -0.4958
v  -0.0678 0.3159 -0.4958
v  -0.0678 0.5208 -0.4958
v  0.0710 0.5208 -0.4958
v  0.3685 0.3159 -0.4958
v  0.2297 0.3159 -0.4958
v  0.2297 0.5208 -0.4958
v  0.3685 0.5208 -0.4958
v  0.4961 0.3159 -0.3677
v  0.4961 0.5208 -0.3677
v  0.4961 0.5208 -0.2289
v  0.4961 0.3159 -0.2289
v  0.4961 0.3159 -0.0702
v  0.4961 0.5208 -0.0702
v  0.4961 0.5208 0.0686
v  0.4961 0.3159 0.0686
v  0.4961 0.3159 0.2313
v  0.4961 0.5208 0.2313
v  0.4961 0.5208 0.3701
v  0.4961 0.3159 0.3701
v  0.3685 0.3159 0.4949
v  0.3685 0.5208 0.4949
v  0.2297 0.5208 0.4949
v  0.2297 0.3159 0.4949
v  0.0710 0.3159 0.4949
v  0.0710 0.5208 0.4949
v  -0.0678 0.5208 0.4949
v  -0.0678 0.3159 0.4949
v  -0.2306 0.3159 0.4949
v  -0.2306 0.5208 0.4949
v  -0.3694 0.5208 0.4949
v  -0.3694 0.3159 0.4949
v  -0.4687 0.0003 -0.1370
v  -0.4687 0.0455 -0.1370
v  -0.4687 0.0455 0.1355
v  -0.4687 0.0003 0.1355
v  -0.5564 0.0003 -0.1370
v  -0.5564 0.0003 0.1355
v  -0.5564 0.0455 0.1355
v  -0.5564 0.0455 -0.1370
# 100 vertices

vn -0.3416 -0.8756 0.3416
vn -0.3416 -0.8756 -0.3416
vn 0.3416 -0.8756 -0.3416
vn 0.3416 -0.8756 0.3416
vn 0.4587 0.7611 -0.4587
vn -0.4587 0.7611 -0.4587
vn -0.4587 0.7611 0.4587
vn 0.4587 0.7611 0.4587
vn -0.3416 -0.3416 0.8756
vn 0.3416 -0.3416 0.8756
vn 0.3416 0.3416 0.8756
vn -0.3416 0.3416 0.8756
vn 0.8756 -0.3416 0.3416
vn 0.8756 -0.3416 -0.3416
vn 0.8756 0.3416 -0.3416
vn 0.8756 0.3416 0.3416
vn 0.3416 -0.3416 -0.8756
vn -0.3416 -0.3416 -0.8756
vn -0.3416 0.3416 -0.8756
vn 0.3416 0.3416 -0.8756
vn -0.8756 -0.3416 -0.3416
vn -0.8756 -0.3416 0.3416
vn -0.8756 0.3416 0.3416
vn -0.8756 0.3416 -0.3416
vn -0.1517 0.9767 0.1517
vn 0.1517 0.9767 0.1517
vn -0.1517 0.9767 -0.1517
vn 0.1517 0.9767 -0.1517
vn -0.6909 -0.0000 -0.7229
vn -0.7228 -0.0000 0.6910
vn -0.9170 -0.2812 0.2828
vn -0.5677 0.5814 -0.5827
vn -0.0000 0.0000 1.0000
vn -0.0000 -0.7089 0.7053
vn 0.0000 0.7065 -0.7077
vn 0.0000 -0.0000 -1.0000
vn -0.5683 0.5825 0.5811
vn 0.0000 0.7081 0.7061
vn -0.9149 -0.2840 -0.2869
vn -0.0000 -0.7060 -0.7082
vn -0.6914 0.0009 0.7225
vn 0.0000 0.0012 1.0000
vn -0.7226 -0.0014 -0.6912
vn -0.0000 -0.0021 -1.0000
vn -1.0000 -0.0000 -0.0000
vn -1.0000 0.0000 -0.0000
vn 0.0000 0.0000 -1.0000
vn 1.0000 0.0000 -0.0000
vn 0.0000 -0.0000 1.0000
vn 0.7071 0.0000 -0.7071
vn 0.5774 0.5774 -0.5774
vn 0.5774 0.5774 0.5774
vn 0.7071 0.0000 0.7071
vn -0.7071 -0.0000 -0.7071
vn -0.7071 0.0000 0.7071
vn -0.5774 0.5774 0.5774
vn -0.5774 0.5773 -0.5774
# 57 vertex normals

vt 0.3000 0.7000 0.0000
vt 0.5000 0.9000 0.0000
vt 0.1000 0.9000 0.0000
vt 0.9000 0.9000 0.0000
vt 0.7000 0.9000 0.0000
vt 0.3000 0.9000 0.0000
# 6 texture coords

o House
g House
s 1
f 1/1/1 2/1/2 3/1/3 4/1/4 
f 5/1/5 6/1/6 7/1/7 8/1/8 
f 9/1/9 10/1/10 11/1/11 12/1/12 
f 13/1/13 14/1/14 15/1/15 16/1/16 
f 17/1/17 18/1/18 19/1/19 20/1/20 
f 21/1/21 22/1/22 23/1/23 24/1/24 
s 2
f 9/1/9 22/1/22 1/1/1 
f 4/1/4 13/1/13 10/1/10 
f 21/1/21 18/1/18 2/1/2 
f 3/1/3 17/1/17 14/1/14 
f 12/1/12 25/1/25 23/1/23 
f 16/1/16 26/1/26 11/1/11 
f 24/1/24 27/1/27 19/1/19 
f 20/1/20 28/1/28 15/1/15 
s 4
f 1/1/1 22/1/22 21/1/21 2/1/2 
s 8
f 2/1/2 18/1/18 17/1/17 3/1/3 
s 4
f 3/1/3 14/1/14 13/1/13 4/1/4 
s 8
f 4/1/4 10/1/10 9/1/9 1/1/1 
s 4
f 25/1/25 12/1/12 11/1/11 26/1/26 
s 8
f 26/1/26 16/1/16 15/1/15 28/1/28 
s 4
f 28/1/28 20/1/20 19/1/19 27/1/27 
s 8
f 27/1/27 24/1/24 23/1/23 25/1/25 
s 16
f 10/1/10 13/1/13 16/1/16 11/1/11 
f 12/1/12 23/1/23 22/1/22 9/1/9 
f 14/1/14 17/1/17 20/1/20 15/1/15 
f 18/1/18 21/1/21 24/1/24 19/1/19 
s off
f 25/1/25 26/1/26 6/1/6 5/1/5 
f 26/1/26 28/1/28 7/1/7 6/1/6 
f 28/1/28 27/1/27 8/1/8 7/1/7 
f 27/1/27 25/1/25 5/1/5 8/1/8 
s 4
f 29/2/29 30/2/30 31/2/31 32/2/32 
s 16
f 33/3/33 34/3/34 31/3/31 30/3/30 
s 64
f 35/2/35 36/2/36 29/2/29 32/2/32 
s off
f 35/2/35 32/2/32 37/2/37 38/2/38 
f 32/2/32 31/2/31 39/2/39 37/2/37 
f 31/3/31 34/3/34 40/3/40 39/3/39 
f 38/2/38 37/2/37 41/2/41 42/2/42 
f 37/2/37 39/2/39 43/2/43 41/2/41 
f 39/2/39 40/2/40 44/2/44 43/2/43 
s 1
f 45/4/45 46/4/45 47/4/45 48/4/45 
s 4
f 49/5/45 50/5/46 51/5/46 52/5/45 
f 53/5/45 54/5/46 55/5/46 56/5/45 
f 57/5/47 58/5/36 59/5/36 60/5/47 
f 61/5/47 62/5/36 63/5/36 64/5/47 
f 65/5/47 66/5/36 67/5/36 68/5/47 
f 69/5/48 70/5/48 71/5/48 72/5/48 
f 73/5/48 74/5/48 75/5/48 76/5/48 
f 77/5/48 78/5/48 79/5/48 80/5/48 
f 81/5/49 82/5/49 83/5/49 84/5/49 
f 85/5/49 86/5/49 87/5/49 88/5/49 
f 89/5/49 90/5/49 91/5/49 92/5/49 
s 2
f 93/3/50 94/3/51 95/3/52 96/3/53 
s 4
f 97/6/54 98/6/55 99/6/56 100/6/57 
s 16
f 96/6/53 95/6/52 99/6/56 98/6/55 
s 32
f 95/6/52 94/6/51 100/6/57 99/6/56 
s 64
f 94/6/51 93/6/50 97/6/54 100/6/57 
# 48 polygons - 8 triangles

