# 3ds Max Wavefront OBJ Exporter v0.97b - (c)2007 guruware
# File Created: 16.08.2017 22:27:19

#
# object Dock0
#

v  0.0241 0.0403 0.4895
v  0.0241 0.0403 -0.4547
v  0.4183 0.0403 -0.4547
v  0.4183 0.0403 0.4895
v  0.0446 0.3914 0.4404
v  0.3978 0.3914 0.4404
v  0.3978 0.3914 -0.4056
v  0.0446 0.3914 -0.4056
v  0.0446 0.0705 0.4798
v  0.3978 0.0705 0.4798
v  0.3978 0.3830 0.4798
v  0.0446 0.3830 0.4798
v  0.4086 0.0705 0.4404
v  0.4086 0.0705 -0.4056
v  0.4086 0.3830 -0.4056
v  0.4086 0.3830 0.4404
v  0.3978 0.0705 -0.4450
v  0.0446 0.0705 -0.4450
v  0.0446 0.3830 -0.4450
v  0.3978 0.3830 -0.4450
v  0.0338 0.0705 -0.4056
v  0.0338 0.0705 0.4404
v  0.0338 0.3830 0.4404
v  0.0338 0.3830 -0.4056
v  0.0241 0.0524 0.5016
v  0.0120 0.0524 0.4895
v  0.4304 0.0524 0.4895
v  0.4183 0.0524 0.5016
v  0.0120 0.0524 -0.4547
v  0.0241 0.0524 -0.4667
v  0.4183 0.0524 -0.4667
v  0.4304 0.0524 -0.4547
v  0.0241 0.4011 0.5016
v  0.0241 0.4132 0.4895
v  0.0120 0.4011 0.4895
v  0.4304 0.4011 0.4895
v  0.4183 0.4132 0.4895
v  0.4183 0.4011 0.5016
v  0.0120 0.4011 -0.4547
v  0.0241 0.4132 -0.4547
v  0.0241 0.4011 -0.4667
v  0.4183 0.4011 -0.4667
v  0.4183 0.4132 -0.4547
v  0.4304 0.4011 -0.4547
v  0.3978 0.4205 0.4404
v  0.0446 0.4205 0.4404
v  0.3978 0.4205 -0.4056
v  0.0446 0.4205 -0.4056
v  0.3978 0.3830 0.5089
v  0.3978 0.0705 0.5089
v  0.0446 0.3830 0.5089
v  0.0446 0.0705 0.5089
v  0.4377 0.3830 -0.4056
v  0.4377 0.0705 -0.4056
v  0.4377 0.3830 0.4404
v  0.4377 0.0705 0.4404
v  0.0446 0.3830 -0.4740
v  0.0446 0.0705 -0.4740
v  0.3978 0.3830 -0.4740
v  0.3978 0.0705 -0.4740
v  0.0048 0.0705 0.4404
v  0.0048 0.0705 -0.4056
v  0.0048 0.3830 0.4404
v  0.0048 0.3830 -0.4056
v  0.3867 0.0403 0.6263
v  0.5689 0.0403 0.6263
v  0.5689 0.0403 -0.6237
v  0.3867 0.0403 -0.6237
v  0.3867 0.0016 0.6263
v  0.3867 0.0016 -0.6237
v  0.5689 0.0016 -0.6237
v  0.5689 0.0016 0.6263
v  0.1466 0.0403 0.6263
v  0.3288 0.0403 0.6263
v  0.3288 0.0403 -0.6237
v  0.1466 0.0403 -0.6237
v  0.1466 0.0016 0.6263
v  0.1466 0.0016 -0.6237
v  0.3288 0.0016 -0.6237
v  0.3288 0.0016 0.6263
v  -0.0898 0.0403 0.6263
v  0.0923 0.0403 0.6263
v  0.0923 0.0403 -0.6237
v  -0.0898 0.0403 -0.6237
v  -0.0898 0.0016 0.6263
v  -0.0898 0.0016 -0.6237
v  0.0923 0.0016 -0.6237
v  0.0923 0.0016 0.6263
v  -0.3264 0.0403 0.6263
v  -0.1443 0.0403 0.6263
v  -0.1443 0.0403 -0.6237
v  -0.3264 0.0403 -0.6237
v  -0.3264 0.0016 0.6263
v  -0.3264 0.0016 -0.6237
v  -0.1443 0.0016 -0.6237
v  -0.1443 0.0016 0.6263
v  -0.5652 0.0403 0.6263
v  -0.3830 0.0403 0.6263
v  -0.3830 0.0403 -0.6237
v  -0.5652 0.0403 -0.6237
v  -0.5652 0.0016 0.6263
v  -0.5652 0.0016 -0.6237
v  -0.3830 0.0016 -0.6237
v  -0.3830 0.0016 0.6263
v  -0.4871 -0.2512 0.6678
v  -0.5462 -0.2512 0.6923
v  -0.6053 -0.2512 0.6678
v  -0.6298 -0.2512 0.6087
v  -0.6053 -0.2512 0.5496
v  -0.5462 -0.2512 0.5251
v  -0.4871 -0.2512 0.5496
v  -0.4627 -0.2512 0.6087
v  -0.4871 0.1694 0.5496
v  -0.4627 0.1694 0.6087
v  -0.5462 0.1694 0.5251
v  -0.6053 0.1694 0.5496
v  -0.6298 0.1694 0.6087
v  -0.6053 0.1694 0.6678
v  -0.5462 0.1694 0.6923
v  -0.4871 0.1694 0.6678
v  -0.4871 -0.2512 -0.5539
v  -0.5462 -0.2512 -0.5295
v  -0.6053 -0.2512 -0.5539
v  -0.6298 -0.2512 -0.6130
v  -0.6053 -0.2512 -0.6721
v  -0.5462 -0.2512 -0.6966
v  -0.4871 -0.2512 -0.6721
v  -0.4627 -0.2512 -0.6130
v  -0.4871 0.1694 -0.6721
v  -0.4627 0.1694 -0.6130
v  -0.5462 0.1694 -0.6966
v  -0.6053 0.1694 -0.6721
v  -0.6298 0.1694 -0.6130
v  -0.6053 0.1694 -0.5539
v  -0.5462 0.1694 -0.5295
v  -0.4871 0.1694 -0.5539
v  0.6102 -0.2512 -0.5539
v  0.5511 -0.2512 -0.5295
v  0.4920 -0.2512 -0.5539
v  0.4676 -0.2512 -0.6130
v  0.4920 -0.2512 -0.6721
v  0.5511 -0.2512 -0.6966
v  0.6102 -0.2512 -0.6721
v  0.6347 -0.2512 -0.6130
v  0.6102 0.1694 -0.6721
v  0.6347 0.1694 -0.6130
v  0.5511 0.1694 -0.6966
v  0.4920 0.1694 -0.6721
v  0.4676 0.1694 -0.6130
v  0.4920 0.1694 -0.5539
v  0.5511 0.1694 -0.5295
v  0.6102 0.1694 -0.5539
v  0.6102 -0.2512 0.6678
v  0.5511 -0.2512 0.6923
v  0.4920 -0.2512 0.6678
v  0.4676 -0.2512 0.6087
v  0.4920 -0.2512 0.5496
v  0.5511 -0.2512 0.5251
v  0.6102 -0.2512 0.5496
v  0.6347 -0.2512 0.6087
v  0.6102 0.1694 0.5496
v  0.6347 0.1694 0.6087
v  0.5511 0.1694 0.5251
v  0.4920 0.1694 0.5496
v  0.4676 0.1694 0.6087
v  0.4920 0.1694 0.6678
v  0.5511 0.1694 0.6923
v  0.6102 0.1694 0.6678
v  -0.5548 -0.0327 0.4560
v  -0.5548 -0.0327 0.3678
v  0.5435 -0.0327 0.3678
v  0.5435 -0.0327 0.4560
v  -0.5548 0.0064 0.4560
v  0.5435 0.0064 0.4560
v  0.5435 0.0064 0.3678
v  -0.5548 0.0064 0.3678
v  -0.5548 -0.0327 -0.3797
v  -0.5548 -0.0327 -0.4679
v  0.5435 -0.0327 -0.4679
v  0.5435 -0.0327 -0.3797
v  -0.5548 0.0064 -0.3797
v  0.5435 0.0064 -0.3797
v  0.5435 0.0064 -0.4679
v  -0.5548 0.0064 -0.4679
# 184 vertices

vn -0.3416 -0.8756 0.3416
vn -0.3416 -0.8756 -0.3416
vn 0.3416 -0.8756 -0.3416
vn 0.3416 -0.8756 0.3416
vn 0.5774 0.5774 -0.5774
vn -0.5774 0.5774 -0.5774
vn -0.5774 0.5774 0.5774
vn 0.5774 0.5774 0.5774
vn -0.5774 -0.5774 0.5774
vn 0.5774 -0.5774 0.5774
vn 0.5774 -0.5774 -0.5774
vn -0.5774 -0.5774 -0.5774
vn -0.3864 -0.3846 0.8383
vn -0.8556 -0.3623 0.3697
vn 0.8556 -0.3623 0.3697
vn 0.3864 -0.3846 0.8383
vn -0.8556 -0.3623 -0.3697
vn -0.3864 -0.3846 -0.8383
vn 0.3864 -0.3846 -0.8383
vn 0.8556 -0.3623 -0.3697
vn -0.3864 0.3846 0.8383
vn -0.3621 0.8561 0.3687
vn -0.8556 0.3623 0.3697
vn 0.8556 0.3623 0.3697
vn 0.3621 0.8561 0.3687
vn 0.3864 0.3846 0.8383
vn -0.8556 0.3623 -0.3697
vn -0.3621 0.8561 -0.3687
vn -0.3864 0.3846 -0.8383
vn 0.3864 0.3846 -0.8383
vn 0.3621 0.8561 -0.3687
vn 0.8556 0.3623 -0.3697
vn -0.1391 0.9525 -0.2710
vn 0.1391 0.9525 -0.2710
vn -0.1391 0.9525 0.2710
vn 0.1391 0.9525 0.2710
vn -0.1816 -0.1528 0.9714
vn -0.1816 0.1528 0.9714
vn 0.1816 -0.1528 0.9714
vn 0.1816 0.1528 0.9714
vn 0.9543 -0.1156 0.2755
vn 0.9543 0.1156 0.2755
vn 0.9543 -0.1156 -0.2755
vn 0.9543 0.1156 -0.2755
vn 0.1816 -0.1528 -0.9714
vn 0.1816 0.1528 -0.9714
vn -0.1816 -0.1528 -0.9714
vn -0.1816 0.1528 -0.9714
vn -0.9543 0.1156 -0.2755
vn -0.9543 0.1156 0.2755
vn -0.9543 -0.1156 -0.2755
vn -0.9543 -0.1156 0.2755
vn 0.5490 -0.6303 0.5490
vn 0.0000 -0.6303 0.7764
vn -0.5490 -0.6303 0.5490
vn -0.7764 -0.6303 -0.0000
vn -0.5490 -0.6303 -0.5490
vn 0.0000 -0.6303 -0.7764
vn 0.5490 -0.6303 -0.5490
vn 0.7764 -0.6303 -0.0000
vn 0.5490 0.6303 -0.5490
vn 0.7764 0.6303 -0.0000
vn 0.0000 0.6303 -0.7764
vn -0.5490 0.6303 -0.5490
vn -0.7764 0.6303 -0.0000
vn -0.5490 0.6303 0.5490
vn 0.0000 0.6303 0.7764
vn 0.5490 0.6303 0.5490
vn -0.7764 -0.6303 0.0000
vn -0.7764 0.6303 0.0000
# 70 vertex normals

vt 0.1000 0.1000 0.0000
vt 0.9000 0.9000 0.0000
vt 0.9000 0.9000 1.0000
vt 0.9000 0.9000 0.4142
vt 0.9000 0.9000 -0.4142
vt 0.9000 0.9000 -1.0000
# 6 texture coords

o Dock0
g Dock0
s 1
f 1/1/1 2/1/2 3/1/3 4/1/4 
f 5/1/5 6/1/6 7/1/7 8/1/8 
f 9/1/8 10/1/7 11/1/9 12/1/10 
f 13/1/5 14/1/8 15/1/10 16/1/11 
f 17/1/6 18/1/5 19/1/11 20/1/12 
f 21/1/7 22/1/6 23/1/12 24/1/9 
s 2
f 25/1/13 26/1/14 1/1/1 
f 4/1/4 27/1/15 28/1/16 
f 29/1/17 30/1/18 2/1/2 
f 3/1/3 31/1/19 32/1/20 
f 33/1/21 34/1/22 35/1/23 
f 36/1/24 37/1/25 38/1/26 
f 39/1/27 40/1/28 41/1/29 
f 42/1/30 43/1/31 44/1/32 
s 4
f 1/1/1 26/1/14 29/1/17 2/1/2 
s 8
f 2/1/2 30/1/18 31/1/19 3/1/3 
s 4
f 3/1/3 32/1/20 27/1/15 4/1/4 
s 8
f 4/1/4 28/1/16 25/1/13 1/1/1 
s 4
f 34/1/22 33/1/21 38/1/26 37/1/25 
s 8
f 37/1/25 36/1/24 44/1/32 43/1/31 
s 4
f 43/1/31 42/1/30 41/1/29 40/1/28 
s 8
f 40/1/28 39/1/27 35/1/23 34/1/22 
s 16
f 28/1/16 27/1/15 36/1/24 38/1/26 
f 33/1/21 35/1/23 26/1/14 25/1/13 
f 32/1/20 31/1/19 42/1/30 44/1/32 
f 30/1/18 29/1/17 39/1/27 41/1/29 
s off
f 34/1/22 37/1/25 45/1/33 46/1/34 
f 37/1/25 43/1/31 47/1/35 45/1/33 
f 43/1/31 40/1/28 48/1/36 47/1/35 
f 40/1/28 34/1/22 46/1/34 48/1/36 
f 28/1/16 38/1/26 49/1/37 50/1/38 
f 38/1/26 33/1/21 51/1/39 49/1/37 
f 33/1/21 25/1/13 52/1/40 51/1/39 
f 25/1/13 28/1/16 50/1/38 52/1/40 
f 32/1/20 44/1/32 53/1/41 54/1/42 
f 44/1/32 36/1/24 55/1/43 53/1/41 
f 36/1/24 27/1/15 56/1/44 55/1/43 
f 27/1/15 32/1/20 54/1/42 56/1/44 
f 30/1/18 41/1/29 57/1/45 58/1/46 
f 41/1/29 42/1/30 59/1/47 57/1/45 
f 42/1/30 31/1/19 60/1/48 59/1/47 
f 31/1/19 30/1/18 58/1/46 60/1/48 
f 29/1/17 26/1/14 61/1/49 62/1/50 
f 26/1/14 35/1/23 63/1/51 61/1/49 
f 35/1/23 39/1/27 64/1/52 63/1/51 
f 39/1/27 29/1/17 62/1/50 64/1/52 
f 46/1/34 45/1/33 6/1/6 5/1/5 
f 45/1/33 47/1/35 7/1/7 6/1/6 
f 47/1/35 48/1/36 8/1/8 7/1/7 
f 48/1/36 46/1/34 5/1/5 8/1/8 
f 50/1/38 49/1/37 11/1/9 10/1/7 
f 49/1/37 51/1/39 12/1/10 11/1/9 
f 51/1/39 52/1/40 9/1/8 12/1/10 
f 52/1/40 50/1/38 10/1/7 9/1/8 
f 54/1/42 53/1/41 15/1/10 14/1/8 
f 53/1/41 55/1/43 16/1/11 15/1/10 
f 55/1/43 56/1/44 13/1/5 16/1/11 
f 56/1/44 54/1/42 14/1/8 13/1/5 
f 58/1/46 57/1/45 19/1/11 18/1/5 
f 57/1/45 59/1/47 20/1/12 19/1/11 
f 59/1/47 60/1/48 17/1/6 20/1/12 
f 60/1/48 58/1/46 18/1/5 17/1/6 
f 62/1/50 61/1/49 22/1/6 21/1/7 
f 61/1/49 63/1/51 23/1/12 22/1/6 
f 63/1/51 64/1/52 24/1/9 23/1/12 
f 64/1/52 62/1/50 21/1/7 24/1/9 
s 2
f 65/2/7 66/2/8 67/2/5 68/2/6 
s 4
f 69/2/9 70/2/12 71/2/11 72/2/10 
s 8
f 65/2/7 69/2/9 72/2/10 66/2/8 
s 16
f 66/2/8 72/2/10 71/2/11 67/2/5 
s 32
f 67/2/5 71/2/11 70/2/12 68/2/6 
s 64
f 68/2/6 70/2/12 69/2/9 65/2/7 
s 2
f 73/2/7 74/2/8 75/2/5 76/2/6 
s 4
f 77/2/9 78/2/12 79/2/11 80/2/10 
s 8
f 73/2/7 77/2/9 80/2/10 74/2/8 
s 16
f 74/2/8 80/2/10 79/2/11 75/2/5 
s 32
f 75/2/5 79/2/11 78/2/12 76/2/6 
s 64
f 76/2/6 78/2/12 77/2/9 73/2/7 
s 2
f 81/2/7 82/2/8 83/2/5 84/2/6 
s 4
f 85/2/9 86/2/12 87/2/11 88/2/10 
s 8
f 81/2/7 85/2/9 88/2/10 82/2/8 
s 16
f 82/2/8 88/2/10 87/2/11 83/2/5 
s 32
f 83/2/5 87/2/11 86/2/12 84/2/6 
s 64
f 84/2/6 86/2/12 85/2/9 81/2/7 
s 2
f 89/2/7 90/2/8 91/2/5 92/2/6 
s 4
f 93/2/9 94/2/12 95/2/11 96/2/10 
s 8
f 89/2/7 93/2/9 96/2/10 90/2/8 
s 16
f 90/2/8 96/2/10 95/2/11 91/2/5 
s 32
f 91/2/5 95/2/11 94/2/12 92/2/6 
s 64
f 92/2/6 94/2/12 93/2/9 89/2/7 
s 2
f 97/2/7 98/2/8 99/2/5 100/2/6 
s 4
f 101/2/9 102/2/12 103/2/11 104/2/10 
s 8
f 97/2/7 101/2/9 104/2/10 98/2/8 
s 16
f 98/2/8 104/2/10 103/2/11 99/2/5 
s 32
f 99/2/5 103/2/11 102/2/12 100/2/6 
s 64
f 100/2/6 102/2/12 101/2/9 97/2/7 
s 1
f 105/3/53 106/3/54 107/3/55 108/3/56 109/3/57 110/3/58 111/3/59 112/4/60 
s 8
f 112/3/60 111/3/59 113/3/61 114/3/62 
f 111/3/59 110/3/58 115/3/63 113/3/61 
f 110/3/58 109/3/57 116/3/64 115/3/63 
f 109/3/57 108/3/56 117/3/65 116/3/64 
f 108/3/56 107/3/55 118/3/66 117/3/65 
f 107/3/55 106/3/54 119/3/67 118/3/66 
f 106/3/54 105/3/53 120/3/68 119/3/67 
f 105/3/53 112/3/60 114/3/62 120/3/68 
s 1
f 120/3/68 114/3/62 113/3/61 115/4/63 116/5/64 117/6/65 118/6/66 119/5/67 
f 121/3/53 122/3/54 123/3/55 124/3/56 125/3/57 126/3/58 127/3/59 128/4/60 
s 8
f 128/3/60 127/3/59 129/3/61 130/3/62 
f 127/3/59 126/3/58 131/3/63 129/3/61 
f 126/3/58 125/3/57 132/3/64 131/3/63 
f 125/3/57 124/3/56 133/3/65 132/3/64 
f 124/3/56 123/3/55 134/3/66 133/3/65 
f 123/3/55 122/3/54 135/3/67 134/3/66 
f 122/3/54 121/3/53 136/3/68 135/3/67 
f 121/3/53 128/3/60 130/3/62 136/3/68 
s 1
f 136/3/68 130/3/62 129/3/61 131/4/63 132/5/64 133/6/65 134/6/66 135/5/67 
f 137/3/53 138/3/54 139/3/55 140/3/69 141/3/57 142/3/58 143/3/59 144/4/60 
s 8
f 144/3/60 143/3/59 145/3/61 146/3/62 
f 143/3/59 142/3/58 147/3/63 145/3/61 
f 142/3/58 141/3/57 148/3/64 147/3/63 
f 141/3/57 140/3/69 149/3/70 148/3/64 
f 140/3/69 139/3/55 150/3/66 149/3/70 
f 139/3/55 138/3/54 151/3/67 150/3/66 
f 138/3/54 137/3/53 152/3/68 151/3/67 
f 137/3/53 144/3/60 146/3/62 152/3/68 
s 1
f 152/3/68 146/3/62 145/3/61 147/4/63 148/5/64 149/6/70 150/6/66 151/5/67 
f 153/3/53 154/3/54 155/3/55 156/3/69 157/3/57 158/3/58 159/3/59 160/4/60 
s 8
f 160/3/60 159/3/59 161/3/61 162/3/62 
f 159/3/59 158/3/58 163/3/63 161/3/61 
f 158/3/58 157/3/57 164/3/64 163/3/63 
f 157/3/57 156/3/69 165/3/70 164/3/64 
f 156/3/69 155/3/55 166/3/66 165/3/70 
f 155/3/55 154/3/54 167/3/67 166/3/66 
f 154/3/54 153/3/53 168/3/68 167/3/67 
f 153/3/53 160/3/60 162/3/62 168/3/68 
s 1
f 168/3/68 162/3/62 161/3/61 163/4/63 164/5/64 165/6/70 166/6/66 167/5/67 
s 2
f 169/2/9 170/2/12 171/2/11 172/2/10 
s 4
f 173/2/7 174/2/8 175/2/5 176/2/6 
s 8
f 169/2/9 172/2/10 174/2/8 173/2/7 
s 16
f 172/2/10 171/2/11 175/2/5 174/2/8 
s 32
f 171/2/11 170/2/12 176/2/6 175/2/5 
s 64
f 170/2/12 169/2/9 173/2/7 176/2/6 
s 2
f 177/2/9 178/2/12 179/2/11 180/2/10 
s 4
f 181/2/7 182/2/8 183/2/5 184/2/6 
s 8
f 177/2/9 180/2/10 182/2/8 181/2/7 
s 16
f 180/2/10 179/2/11 183/2/5 182/2/8 
s 32
f 179/2/11 178/2/12 184/2/6 183/2/5 
s 64
f 178/2/12 177/2/9 181/2/7 184/2/6 
# 140 polygons - 8 triangles

