# 3ds Max Wavefront OBJ Exporter v0.97b - (c)2007 guruware
# File Created: 16.08.2017 22:34:22

#
# object Dock0_LOD1
#

v  -0.5652 0.0054 1.3229
v  -0.5652 0.0054 0.0807
v  0.5686 0.0054 0.0807
v  0.5686 0.0054 1.3229
v  -0.5652 0.0425 1.3229
v  0.5686 0.0425 1.3229
v  0.5686 0.0425 0.0807
v  -0.5652 0.0425 0.0807
v  0.0007 0.0403 1.2056
v  0.0007 0.0403 0.2324
v  0.4365 0.0403 0.2324
v  0.4365 0.0403 1.2056
v  0.0007 0.4264 1.2056
v  0.4365 0.4264 1.2056
v  0.4365 0.4264 0.2324
v  0.0007 0.4264 0.2324
v  0.4646 -0.2504 0.1258
v  0.5250 -0.2504 -0.0036
v  0.6431 -0.2504 0.0515
v  0.5827 -0.2504 0.1809
v  0.4646 0.1710 0.1258
v  0.5827 0.1710 0.1809
v  0.6431 0.1710 0.0515
v  0.5250 0.1710 -0.0036
v  -0.6367 -0.2504 0.1258
v  -0.5763 -0.2504 -0.0036
v  -0.4582 -0.2504 0.0515
v  -0.5186 -0.2504 0.1809
v  -0.6367 0.1710 0.1258
v  -0.5186 0.1710 0.1809
v  -0.4582 0.1710 0.0515
v  -0.5763 0.1710 -0.0036
v  -0.6367 -0.2504 1.3473
v  -0.5763 -0.2504 1.2179
v  -0.4582 -0.2504 1.2730
v  -0.5186 -0.2504 1.4024
v  -0.6367 0.1710 1.3473
v  -0.5186 0.1710 1.4024
v  -0.4582 0.1710 1.2730
v  -0.5763 0.1710 1.2179
v  0.4646 -0.2504 1.3473
v  0.5250 -0.2504 1.2179
v  0.6431 -0.2504 1.2730
v  0.5827 -0.2504 1.4024
v  0.4646 0.1710 1.3473
v  0.5827 0.1710 1.4024
v  0.6431 0.1710 1.2730
v  0.5250 0.1710 1.2179
v  -0.4993 0.0403 1.2056
v  -0.4993 0.0403 0.2324
v  -0.0636 0.0403 0.2324
v  -0.0636 0.0403 1.2056
v  -0.4993 0.4264 1.2056
v  -0.0636 0.4264 1.2056
v  -0.0636 0.4264 0.2324
v  -0.4993 0.4264 0.2324
v  0.2632 0.4331 1.2042
v  -0.5796 0.4331 0.7176
v  -0.3617 0.4331 0.3402
v  0.4811 0.4331 0.8268
v  0.2632 0.8192 1.2042
v  0.4811 0.8192 0.8268
v  -0.3617 0.8192 0.3402
v  -0.5796 0.8192 0.7176
v  -0.5652 0.0054 -0.0607
v  -0.5652 0.0054 -1.3029
v  0.5686 0.0054 -1.3029
v  0.5686 0.0054 -0.0607
v  -0.5652 0.0425 -0.0607
v  0.5686 0.0425 -0.0607
v  0.5686 0.0425 -1.3029
v  -0.5652 0.0425 -1.3029
v  0.4646 -0.2504 -1.2578
v  0.5250 -0.2504 -1.3872
v  0.6431 -0.2504 -1.3321
v  0.5827 -0.2504 -1.2027
v  0.4646 0.1710 -1.2578
v  0.5827 0.1710 -1.2027
v  0.6431 0.1710 -1.3321
v  0.5250 0.1710 -1.3872
v  -0.6367 -0.2504 -1.2578
v  -0.5763 -0.2504 -1.3872
v  -0.4582 -0.2504 -1.3321
v  -0.5186 -0.2504 -1.2027
v  -0.6367 0.1710 -1.2578
v  -0.5186 0.1710 -1.2027
v  -0.4582 0.1710 -1.3321
v  -0.5763 0.1710 -1.3872
v  -0.6367 -0.2504 -0.0363
v  -0.5763 -0.2504 -0.1657
v  -0.4582 -0.2504 -0.1106
v  -0.5186 -0.2504 0.0188
v  -0.6367 0.1710 -0.0363
v  -0.5186 0.1710 0.0188
v  -0.4582 0.1710 -0.1106
v  -0.5763 0.1710 -0.1657
v  0.4646 -0.2504 -0.0363
v  0.5250 -0.2504 -0.1657
v  0.6431 -0.2504 -0.1106
v  0.5827 -0.2504 0.0188
v  0.4646 0.1710 -0.0363
v  0.5827 0.1710 0.0188
v  0.6431 0.1710 -0.1106
v  0.5250 0.1710 -0.1657
v  -0.4993 0.0403 -0.1780
v  -0.4993 0.0403 -1.1512
v  -0.0636 0.0403 -1.1512
v  -0.0636 0.0403 -0.1780
v  -0.4993 0.4264 -0.1780
v  -0.0636 0.4264 -0.1780
v  -0.0636 0.4264 -1.1512
v  -0.4993 0.4264 -1.1512
# 112 vertices

vn -0.5774 -0.5774 0.5774
vn -0.5774 -0.5774 -0.5774
vn 0.5774 -0.5774 -0.5774
vn 0.5774 -0.5774 0.5774
vn -0.5774 0.5774 0.5774
vn 0.5774 0.5774 0.5774
vn 0.5774 0.5774 -0.5774
vn -0.5774 0.5774 -0.5774
vn -0.7673 -0.5773 0.2793
vn -0.2793 -0.5774 -0.7673
vn 0.7673 -0.5774 -0.2793
vn 0.2793 -0.5773 0.7673
vn -0.7673 0.5774 0.2793
vn 0.2793 0.5774 0.7673
vn 0.7673 0.5773 -0.2793
vn -0.2793 0.5773 -0.7673
vn 0.2113 -0.5774 0.7887
vn -0.7887 -0.5774 0.2113
vn -0.2113 -0.5774 -0.7887
vn 0.7887 -0.5774 -0.2113
vn 0.2113 0.5774 0.7887
vn 0.7887 0.5774 -0.2113
vn -0.2113 0.5774 -0.7887
vn -0.7887 0.5774 0.2113
# 24 vertex normals

vt 0.9000 0.9000 0.0000
vt 0.7000 0.1000 0.0000
# 2 texture coords

o Dock0_LOD1
g Dock0_LOD1
s 2
f 1/1/1 2/1/2 3/1/3 4/1/4 
s 4
f 5/1/5 6/1/6 7/1/7 8/1/8 
s 8
f 1/1/1 4/1/4 6/1/6 5/1/5 
s 16
f 4/1/4 3/1/3 7/1/7 6/1/6 
s 32
f 3/1/3 2/1/2 8/1/8 7/1/7 
s 64
f 2/1/2 1/1/1 5/1/5 8/1/8 
s 2
f 9/2/1 10/2/2 11/2/3 12/2/4 
s 4
f 13/2/5 14/2/6 15/2/7 16/2/8 
s 8
f 9/2/1 12/2/4 14/2/6 13/2/5 
s 16
f 12/2/4 11/2/3 15/2/7 14/2/6 
s 32
f 11/2/3 10/2/2 16/2/8 15/2/7 
s 64
f 10/2/2 9/2/1 13/2/5 16/2/8 
s 2
f 17/1/9 18/1/10 19/1/11 20/1/12 
s 4
f 21/1/13 22/1/14 23/1/15 24/1/16 
s 8
f 17/1/9 20/1/12 22/1/14 21/1/13 
s 16
f 20/1/12 19/1/11 23/1/15 22/1/14 
s 32
f 19/1/11 18/1/10 24/1/16 23/1/15 
s 64
f 18/1/10 17/1/9 21/1/13 24/1/16 
s 2
f 25/1/9 26/1/10 27/1/11 28/1/12 
s 4
f 29/1/13 30/1/14 31/1/15 32/1/16 
s 8
f 25/1/9 28/1/12 30/1/14 29/1/13 
s 16
f 28/1/12 27/1/11 31/1/15 30/1/14 
s 32
f 27/1/11 26/1/10 32/1/16 31/1/15 
s 64
f 26/1/10 25/1/9 29/1/13 32/1/16 
s 2
f 33/1/9 34/1/10 35/1/11 36/1/12 
s 4
f 37/1/13 38/1/14 39/1/15 40/1/16 
s 8
f 33/1/9 36/1/12 38/1/14 37/1/13 
s 16
f 36/1/12 35/1/11 39/1/15 38/1/14 
s 32
f 35/1/11 34/1/10 40/1/16 39/1/15 
s 64
f 34/1/10 33/1/9 37/1/13 40/1/16 
s 2
f 41/1/9 42/1/10 43/1/11 44/1/12 
s 4
f 45/1/13 46/1/14 47/1/15 48/1/16 
s 8
f 41/1/9 44/1/12 46/1/14 45/1/13 
s 16
f 44/1/12 43/1/11 47/1/15 46/1/14 
s 32
f 43/1/11 42/1/10 48/1/16 47/1/15 
s 64
f 42/1/10 41/1/9 45/1/13 48/1/16 
s 2
f 49/2/1 50/2/2 51/2/3 52/2/4 
s 4
f 53/2/5 54/2/6 55/2/7 56/2/8 
s 8
f 49/2/1 52/2/4 54/2/6 53/2/5 
s 16
f 52/2/4 51/2/3 55/2/7 54/2/6 
s 32
f 51/2/3 50/2/2 56/2/8 55/2/7 
s 64
f 50/2/2 49/2/1 53/2/5 56/2/8 
s 2
f 57/2/17 58/2/18 59/2/19 60/2/20 
s 4
f 61/2/21 62/2/22 63/2/23 64/2/24 
s 8
f 57/2/17 60/2/20 62/2/22 61/2/21 
s 16
f 60/2/20 59/2/19 63/2/23 62/2/22 
s 32
f 59/2/19 58/2/18 64/2/24 63/2/23 
s 64
f 58/2/18 57/2/17 61/2/21 64/2/24 
s 2
f 65/1/1 66/1/2 67/1/3 68/1/4 
s 4
f 69/1/5 70/1/6 71/1/7 72/1/8 
s 8
f 65/1/1 68/1/4 70/1/6 69/1/5 
s 16
f 68/1/4 67/1/3 71/1/7 70/1/6 
s 32
f 67/1/3 66/1/2 72/1/8 71/1/7 
s 64
f 66/1/2 65/1/1 69/1/5 72/1/8 
s 2
f 73/1/9 74/1/10 75/1/11 76/1/12 
s 4
f 77/1/13 78/1/14 79/1/15 80/1/16 
s 8
f 73/1/9 76/1/12 78/1/14 77/1/13 
s 16
f 76/1/12 75/1/11 79/1/15 78/1/14 
s 32
f 75/1/11 74/1/10 80/1/16 79/1/15 
s 64
f 74/1/10 73/1/9 77/1/13 80/1/16 
s 2
f 81/1/9 82/1/10 83/1/11 84/1/12 
s 4
f 85/1/13 86/1/14 87/1/15 88/1/16 
s 8
f 81/1/9 84/1/12 86/1/14 85/1/13 
s 16
f 84/1/12 83/1/11 87/1/15 86/1/14 
s 32
f 83/1/11 82/1/10 88/1/16 87/1/15 
s 64
f 82/1/10 81/1/9 85/1/13 88/1/16 
s 2
f 89/1/9 90/1/10 91/1/11 92/1/12 
s 4
f 93/1/13 94/1/14 95/1/15 96/1/16 
s 8
f 89/1/9 92/1/12 94/1/14 93/1/13 
s 16
f 92/1/12 91/1/11 95/1/15 94/1/14 
s 32
f 91/1/11 90/1/10 96/1/16 95/1/15 
s 64
f 90/1/10 89/1/9 93/1/13 96/1/16 
s 2
f 97/1/9 98/1/10 99/1/11 100/1/12 
s 4
f 101/1/13 102/1/14 103/1/15 104/1/16 
s 8
f 97/1/9 100/1/12 102/1/14 101/1/13 
s 16
f 100/1/12 99/1/11 103/1/15 102/1/14 
s 32
f 99/1/11 98/1/10 104/1/16 103/1/15 
s 64
f 98/1/10 97/1/9 101/1/13 104/1/16 
s 2
f 105/2/1 106/2/2 107/2/3 108/2/4 
s 4
f 109/2/5 110/2/6 111/2/7 112/2/8 
s 8
f 105/2/1 108/2/4 110/2/6 109/2/5 
s 16
f 108/2/4 107/2/3 111/2/7 110/2/6 
s 32
f 107/2/3 106/2/2 112/2/8 111/2/7 
s 64
f 106/2/2 105/2/1 109/2/5 112/2/8 
# 84 polygons

