# 3ds Max Wavefront OBJ Exporter v0.97b - (c)2007 guruware
# File Created: 16.08.2017 22:35:30

#
# object Dock0_LOD1
#

v  -0.5652 0.0054 -0.0639
v  -0.5652 0.0054 -1.3061
v  0.5686 0.0054 -1.3061
v  0.5686 0.0054 -0.0639
v  -0.5652 0.0425 -0.0639
v  0.5686 0.0425 -0.0639
v  0.5686 0.0425 -1.3061
v  -0.5652 0.0425 -1.3061
v  0.0007 0.0403 -0.1812
v  0.0007 0.0403 -1.1544
v  0.4365 0.0403 -1.1544
v  0.4365 0.0403 -0.1812
v  0.0007 0.4264 -0.1812
v  0.4365 0.4264 -0.1812
v  0.4365 0.4264 -1.1544
v  0.0007 0.4264 -1.1544
v  0.4646 -0.2504 -1.2610
v  0.5250 -0.2504 -1.3904
v  0.6431 -0.2504 -1.3353
v  0.5827 -0.2504 -1.2059
v  0.4646 0.1710 -1.2610
v  0.5827 0.1710 -1.2059
v  0.6431 0.1710 -1.3353
v  0.5250 0.1710 -1.3904
v  -0.6367 -0.2504 -1.2610
v  -0.5763 -0.2504 -1.3904
v  -0.4582 -0.2504 -1.3353
v  -0.5186 -0.2504 -1.2059
v  -0.6367 0.1710 -1.2610
v  -0.5186 0.1710 -1.2059
v  -0.4582 0.1710 -1.3353
v  -0.5763 0.1710 -1.3904
v  -0.6367 -0.2504 -0.0395
v  -0.5763 -0.2504 -0.1689
v  -0.4582 -0.2504 -0.1138
v  -0.5186 -0.2504 0.0156
v  -0.6367 0.1710 -0.0395
v  -0.5186 0.1710 0.0156
v  -0.4582 0.1710 -0.1138
v  -0.5763 0.1710 -0.1689
v  0.4646 -0.2504 -0.0395
v  0.5250 -0.2504 -0.1689
v  0.6431 -0.2504 -0.1138
v  0.5827 -0.2504 0.0156
v  0.4646 0.1710 -0.0395
v  0.5827 0.1710 0.0156
v  0.6431 0.1710 -0.1138
v  0.5250 0.1710 -0.1689
v  -0.4993 0.0403 -0.1812
v  -0.4993 0.0403 -1.1544
v  -0.0636 0.0403 -1.1544
v  -0.0636 0.0403 -0.1812
v  -0.4993 0.4264 -0.1812
v  -0.0636 0.4264 -0.1812
v  -0.0636 0.4264 -1.1544
v  -0.4993 0.4264 -1.1544
v  0.2632 0.4331 -0.1826
v  -0.5796 0.4331 -0.6692
v  -0.3617 0.4331 -1.0466
v  0.4811 0.4331 -0.5600
v  0.2632 0.8192 -0.1826
v  0.4811 0.8192 -0.5600
v  -0.3617 0.8192 -1.0466
v  -0.5796 0.8192 -0.6692
v  -0.5652 0.0054 -1.4475
v  -0.5652 0.0054 -2.6897
v  0.5686 0.0054 -2.6897
v  0.5686 0.0054 -1.4475
v  -0.5652 0.0425 -1.4475
v  0.5686 0.0425 -1.4475
v  0.5686 0.0425 -2.6897
v  -0.5652 0.0425 -2.6897
v  0.0007 0.0403 -1.5648
v  0.0007 0.0403 -2.5380
v  0.4365 0.0403 -2.5380
v  0.4365 0.0403 -1.5648
v  0.0007 0.4264 -1.5648
v  0.4365 0.4264 -1.5648
v  0.4365 0.4264 -2.5380
v  0.0007 0.4264 -2.5380
v  0.4646 -0.2504 -2.6446
v  0.5250 -0.2504 -2.7740
v  0.6431 -0.2504 -2.7189
v  0.5827 -0.2504 -2.5895
v  0.4646 0.1710 -2.6446
v  0.5827 0.1710 -2.5895
v  0.6431 0.1710 -2.7189
v  0.5250 0.1710 -2.7740
v  -0.6367 -0.2504 -2.6446
v  -0.5763 -0.2504 -2.7740
v  -0.4582 -0.2504 -2.7189
v  -0.5186 -0.2504 -2.5895
v  -0.6367 0.1710 -2.6446
v  -0.5186 0.1710 -2.5895
v  -0.4582 0.1710 -2.7189
v  -0.5763 0.1710 -2.7740
v  -0.6367 -0.2504 -1.4231
v  -0.5763 -0.2504 -1.5525
v  -0.4582 -0.2504 -1.4974
v  -0.5186 -0.2504 -1.3680
v  -0.6367 0.1710 -1.4231
v  -0.5186 0.1710 -1.3680
v  -0.4582 0.1710 -1.4974
v  -0.5763 0.1710 -1.5525
v  0.4646 -0.2504 -1.4231
v  0.5250 -0.2504 -1.5525
v  0.6431 -0.2504 -1.4974
v  0.5827 -0.2504 -1.3680
v  0.4646 0.1710 -1.4231
v  0.5827 0.1710 -1.3680
v  0.6431 0.1710 -1.4974
v  0.5250 0.1710 -1.5525
v  -0.4993 0.0403 -1.5648
v  -0.4993 0.0403 -2.5380
v  -0.0636 0.0403 -2.5380
v  -0.0636 0.0403 -1.5648
v  -0.4993 0.4264 -1.5648
v  -0.0636 0.4264 -1.5648
v  -0.0636 0.4264 -2.5380
v  -0.4993 0.4264 -2.5380
v  0.2632 0.4331 -1.5662
v  -0.5796 0.4331 -2.0528
v  -0.3617 0.4331 -2.4302
v  0.4811 0.4331 -1.9436
v  0.2632 0.8192 -1.5662
v  0.4811 0.8192 -1.9436
v  -0.3617 0.8192 -2.4302
v  -0.5796 0.8192 -2.0528
v  -0.5652 0.0054 1.3291
v  -0.5652 0.0054 0.0868
v  0.5686 0.0054 0.0868
v  0.5686 0.0054 1.3291
v  -0.5652 0.0425 1.3291
v  0.5686 0.0425 1.3291
v  0.5686 0.0425 0.0868
v  -0.5652 0.0425 0.0868
v  0.4646 -0.2504 0.1320
v  0.5250 -0.2504 0.0025
v  0.6431 -0.2504 0.0576
v  0.5827 -0.2504 0.1870
v  0.4646 0.1710 0.1320
v  0.5827 0.1710 0.1870
v  0.6431 0.1710 0.0576
v  0.5250 0.1710 0.0025
v  -0.6367 -0.2504 0.1320
v  -0.5763 -0.2504 0.0025
v  -0.4582 -0.2504 0.0576
v  -0.5186 -0.2504 0.1870
v  -0.6367 0.1710 0.1320
v  -0.5186 0.1710 0.1870
v  -0.4582 0.1710 0.0576
v  -0.5763 0.1710 0.0025
v  -0.6367 -0.2504 1.3535
v  -0.5763 -0.2504 1.2240
v  -0.4582 -0.2504 1.2791
v  -0.5186 -0.2504 1.4086
v  -0.6367 0.1710 1.3535
v  -0.5186 0.1710 1.4086
v  -0.4582 0.1710 1.2791
v  -0.5763 0.1710 1.2240
v  0.4646 -0.2504 1.3535
v  0.5250 -0.2504 1.2240
v  0.6431 -0.2504 1.2791
v  0.5827 -0.2504 1.4086
v  0.4646 0.1710 1.3535
v  0.5827 0.1710 1.4086
v  0.6431 0.1710 1.2791
v  0.5250 0.1710 1.2240
v  -0.4993 0.0403 1.2117
v  -0.4993 0.0403 0.2386
v  -0.0636 0.0403 0.2386
v  -0.0636 0.0403 1.2117
v  -0.4993 0.4264 1.2117
v  -0.0636 0.4264 1.2117
v  -0.0636 0.4264 0.2386
v  -0.4993 0.4264 0.2386
v  0.0007 0.0403 1.2028
v  0.0007 0.0403 0.2297
v  0.4365 0.0403 0.2297
v  0.4365 0.0403 1.2028
v  0.0007 0.4264 1.2028
v  0.4365 0.4264 1.2028
v  0.4365 0.4264 0.2297
v  0.0007 0.4264 0.2297
v  0.2632 0.4331 1.2014
v  -0.5796 0.4331 0.7149
v  -0.3617 0.4331 0.3375
v  0.4811 0.4331 0.8241
v  0.2632 0.8192 1.2014
v  0.4811 0.8192 0.8241
v  -0.3617 0.8192 0.3375
v  -0.5796 0.8192 0.7149
v  -0.5652 0.0054 2.7158
v  -0.5652 0.0054 1.4735
v  0.5686 0.0054 1.4735
v  0.5686 0.0054 2.7158
v  -0.5652 0.0425 2.7158
v  0.5686 0.0425 2.7158
v  0.5686 0.0425 1.4735
v  -0.5652 0.0425 1.4735
v  0.4646 -0.2504 1.5187
v  0.5250 -0.2504 1.3892
v  0.6431 -0.2504 1.4443
v  0.5827 -0.2504 1.5737
v  0.4646 0.1710 1.5187
v  0.5827 0.1710 1.5737
v  0.6431 0.1710 1.4443
v  0.5250 0.1710 1.3892
v  -0.6367 -0.2504 1.5187
v  -0.5763 -0.2504 1.3892
v  -0.4582 -0.2504 1.4443
v  -0.5186 -0.2504 1.5737
v  -0.6367 0.1710 1.5187
v  -0.5186 0.1710 1.5737
v  -0.4582 0.1710 1.4443
v  -0.5763 0.1710 1.3892
v  -0.6367 -0.2504 2.7402
v  -0.5763 -0.2504 2.6107
v  -0.4582 -0.2504 2.6658
v  -0.5186 -0.2504 2.7952
v  -0.6367 0.1710 2.7402
v  -0.5186 0.1710 2.7952
v  -0.4582 0.1710 2.6658
v  -0.5763 0.1710 2.6107
v  0.4646 -0.2504 2.7402
v  0.5250 -0.2504 2.6107
v  0.6431 -0.2504 2.6658
v  0.5827 -0.2504 2.7952
v  0.4646 0.1710 2.7402
v  0.5827 0.1710 2.7952
v  0.6431 0.1710 2.6658
v  0.5250 0.1710 2.6107
v  -0.4993 0.0403 2.5984
v  -0.4993 0.0403 1.6253
v  -0.0636 0.0403 1.6253
v  -0.0636 0.0403 2.5984
v  -0.4993 0.4264 2.5984
v  -0.0636 0.4264 2.5984
v  -0.0636 0.4264 1.6253
v  -0.4993 0.4264 1.6253
v  0.0007 0.0403 2.5895
v  0.0007 0.0403 1.6164
v  0.4365 0.0403 1.6164
v  0.4365 0.0403 2.5895
v  0.0007 0.4264 2.5895
v  0.4365 0.4264 2.5895
v  0.4365 0.4264 1.6164
v  0.0007 0.4264 1.6164
v  0.2632 0.4331 2.5881
v  -0.5796 0.4331 2.1016
v  -0.3617 0.4331 1.7242
v  0.4811 0.4331 2.2107
v  0.2632 0.8192 2.5881
v  0.4811 0.8192 2.2107
v  -0.3617 0.8192 1.7242
v  -0.5796 0.8192 2.1016
# 256 vertices

vn -0.5774 -0.5774 0.5774
vn -0.5774 -0.5774 -0.5774
vn 0.5774 -0.5774 -0.5774
vn 0.5774 -0.5774 0.5774
vn -0.5774 0.5774 0.5774
vn 0.5774 0.5774 0.5774
vn 0.5774 0.5774 -0.5774
vn -0.5774 0.5774 -0.5774
vn -0.7673 -0.5773 0.2793
vn -0.2793 -0.5774 -0.7673
vn 0.7673 -0.5774 -0.2793
vn 0.2793 -0.5773 0.7673
vn -0.7673 0.5774 0.2793
vn 0.2793 0.5774 0.7673
vn 0.7673 0.5773 -0.2793
vn -0.2793 0.5773 -0.7673
vn 0.2113 -0.5774 0.7887
vn -0.7887 -0.5774 0.2113
vn -0.2113 -0.5774 -0.7887
vn 0.7887 -0.5774 -0.2113
vn 0.2113 0.5774 0.7887
vn 0.7887 0.5774 -0.2113
vn -0.2113 0.5774 -0.7887
vn -0.7887 0.5774 0.2113
vn -0.7886 -0.5774 0.2114
vn -0.2112 -0.5774 -0.7887
vn -0.2112 0.5774 -0.7887
vn -0.7886 0.5774 0.2114
# 28 vertex normals

vt 0.9000 0.9000 0.0000
vt 0.7000 0.1000 0.0000
# 2 texture coords

o Dock0_LOD1
g Dock0_LOD1
s 2
f 1/1/1 2/1/2 3/1/3 4/1/4 
s 4
f 5/1/5 6/1/6 7/1/7 8/1/8 
s 8
f 1/1/1 4/1/4 6/1/6 5/1/5 
s 16
f 4/1/4 3/1/3 7/1/7 6/1/6 
s 32
f 3/1/3 2/1/2 8/1/8 7/1/7 
s 64
f 2/1/2 1/1/1 5/1/5 8/1/8 
s 2
f 9/2/1 10/2/2 11/2/3 12/2/4 
s 4
f 13/2/5 14/2/6 15/2/7 16/2/8 
s 8
f 9/2/1 12/2/4 14/2/6 13/2/5 
s 16
f 12/2/4 11/2/3 15/2/7 14/2/6 
s 32
f 11/2/3 10/2/2 16/2/8 15/2/7 
s 64
f 10/2/2 9/2/1 13/2/5 16/2/8 
s 2
f 17/1/9 18/1/10 19/1/11 20/1/12 
s 4
f 21/1/13 22/1/14 23/1/15 24/1/16 
s 8
f 17/1/9 20/1/12 22/1/14 21/1/13 
s 16
f 20/1/12 19/1/11 23/1/15 22/1/14 
s 32
f 19/1/11 18/1/10 24/1/16 23/1/15 
s 64
f 18/1/10 17/1/9 21/1/13 24/1/16 
s 2
f 25/1/9 26/1/10 27/1/11 28/1/12 
s 4
f 29/1/13 30/1/14 31/1/15 32/1/16 
s 8
f 25/1/9 28/1/12 30/1/14 29/1/13 
s 16
f 28/1/12 27/1/11 31/1/15 30/1/14 
s 32
f 27/1/11 26/1/10 32/1/16 31/1/15 
s 64
f 26/1/10 25/1/9 29/1/13 32/1/16 
s 2
f 33/1/9 34/1/10 35/1/11 36/1/12 
s 4
f 37/1/13 38/1/14 39/1/15 40/1/16 
s 8
f 33/1/9 36/1/12 38/1/14 37/1/13 
s 16
f 36/1/12 35/1/11 39/1/15 38/1/14 
s 32
f 35/1/11 34/1/10 40/1/16 39/1/15 
s 64
f 34/1/10 33/1/9 37/1/13 40/1/16 
s 2
f 41/1/9 42/1/10 43/1/11 44/1/12 
s 4
f 45/1/13 46/1/14 47/1/15 48/1/16 
s 8
f 41/1/9 44/1/12 46/1/14 45/1/13 
s 16
f 44/1/12 43/1/11 47/1/15 46/1/14 
s 32
f 43/1/11 42/1/10 48/1/16 47/1/15 
s 64
f 42/1/10 41/1/9 45/1/13 48/1/16 
s 2
f 49/2/1 50/2/2 51/2/3 52/2/4 
s 4
f 53/2/5 54/2/6 55/2/7 56/2/8 
s 8
f 49/2/1 52/2/4 54/2/6 53/2/5 
s 16
f 52/2/4 51/2/3 55/2/7 54/2/6 
s 32
f 51/2/3 50/2/2 56/2/8 55/2/7 
s 64
f 50/2/2 49/2/1 53/2/5 56/2/8 
s 2
f 57/2/17 58/2/18 59/2/19 60/2/20 
s 4
f 61/2/21 62/2/22 63/2/23 64/2/24 
s 8
f 57/2/17 60/2/20 62/2/22 61/2/21 
s 16
f 60/2/20 59/2/19 63/2/23 62/2/22 
s 32
f 59/2/19 58/2/18 64/2/24 63/2/23 
s 64
f 58/2/18 57/2/17 61/2/21 64/2/24 
s 2
f 65/1/1 66/1/2 67/1/3 68/1/4 
s 4
f 69/1/5 70/1/6 71/1/7 72/1/8 
s 8
f 65/1/1 68/1/4 70/1/6 69/1/5 
s 16
f 68/1/4 67/1/3 71/1/7 70/1/6 
s 32
f 67/1/3 66/1/2 72/1/8 71/1/7 
s 64
f 66/1/2 65/1/1 69/1/5 72/1/8 
s 2
f 73/2/1 74/2/2 75/2/3 76/2/4 
s 4
f 77/2/5 78/2/6 79/2/7 80/2/8 
s 8
f 73/2/1 76/2/4 78/2/6 77/2/5 
s 16
f 76/2/4 75/2/3 79/2/7 78/2/6 
s 32
f 75/2/3 74/2/2 80/2/8 79/2/7 
s 64
f 74/2/2 73/2/1 77/2/5 80/2/8 
s 2
f 81/1/9 82/1/10 83/1/11 84/1/12 
s 4
f 85/1/13 86/1/14 87/1/15 88/1/16 
s 8
f 81/1/9 84/1/12 86/1/14 85/1/13 
s 16
f 84/1/12 83/1/11 87/1/15 86/1/14 
s 32
f 83/1/11 82/1/10 88/1/16 87/1/15 
s 64
f 82/1/10 81/1/9 85/1/13 88/1/16 
s 2
f 89/1/9 90/1/10 91/1/11 92/1/12 
s 4
f 93/1/13 94/1/14 95/1/15 96/1/16 
s 8
f 89/1/9 92/1/12 94/1/14 93/1/13 
s 16
f 92/1/12 91/1/11 95/1/15 94/1/14 
s 32
f 91/1/11 90/1/10 96/1/16 95/1/15 
s 64
f 90/1/10 89/1/9 93/1/13 96/1/16 
s 2
f 97/1/9 98/1/10 99/1/11 100/1/12 
s 4
f 101/1/13 102/1/14 103/1/15 104/1/16 
s 8
f 97/1/9 100/1/12 102/1/14 101/1/13 
s 16
f 100/1/12 99/1/11 103/1/15 102/1/14 
s 32
f 99/1/11 98/1/10 104/1/16 103/1/15 
s 64
f 98/1/10 97/1/9 101/1/13 104/1/16 
s 2
f 105/1/9 106/1/10 107/1/11 108/1/12 
s 4
f 109/1/13 110/1/14 111/1/15 112/1/16 
s 8
f 105/1/9 108/1/12 110/1/14 109/1/13 
s 16
f 108/1/12 107/1/11 111/1/15 110/1/14 
s 32
f 107/1/11 106/1/10 112/1/16 111/1/15 
s 64
f 106/1/10 105/1/9 109/1/13 112/1/16 
s 2
f 113/2/1 114/2/2 115/2/3 116/2/4 
s 4
f 117/2/5 118/2/6 119/2/7 120/2/8 
s 8
f 113/2/1 116/2/4 118/2/6 117/2/5 
s 16
f 116/2/4 115/2/3 119/2/7 118/2/6 
s 32
f 115/2/3 114/2/2 120/2/8 119/2/7 
s 64
f 114/2/2 113/2/1 117/2/5 120/2/8 
s 2
f 121/2/17 122/2/25 123/2/26 124/2/20 
s 4
f 125/2/21 126/2/22 127/2/27 128/2/28 
s 8
f 121/2/17 124/2/20 126/2/22 125/2/21 
s 16
f 124/2/20 123/2/26 127/2/27 126/2/22 
s 32
f 123/2/26 122/2/25 128/2/28 127/2/27 
s 64
f 122/2/25 121/2/17 125/2/21 128/2/28 
s 2
f 129/1/1 130/1/2 131/1/3 132/1/4 
s 4
f 133/1/5 134/1/6 135/1/7 136/1/8 
s 8
f 129/1/1 132/1/4 134/1/6 133/1/5 
s 16
f 132/1/4 131/1/3 135/1/7 134/1/6 
s 32
f 131/1/3 130/1/2 136/1/8 135/1/7 
s 64
f 130/1/2 129/1/1 133/1/5 136/1/8 
s 2
f 137/1/9 138/1/10 139/1/11 140/1/12 
s 4
f 141/1/13 142/1/14 143/1/15 144/1/16 
s 8
f 137/1/9 140/1/12 142/1/14 141/1/13 
s 16
f 140/1/12 139/1/11 143/1/15 142/1/14 
s 32
f 139/1/11 138/1/10 144/1/16 143/1/15 
s 64
f 138/1/10 137/1/9 141/1/13 144/1/16 
s 2
f 145/1/9 146/1/10 147/1/11 148/1/12 
s 4
f 149/1/13 150/1/14 151/1/15 152/1/16 
s 8
f 145/1/9 148/1/12 150/1/14 149/1/13 
s 16
f 148/1/12 147/1/11 151/1/15 150/1/14 
s 32
f 147/1/11 146/1/10 152/1/16 151/1/15 
s 64
f 146/1/10 145/1/9 149/1/13 152/1/16 
s 2
f 153/1/9 154/1/10 155/1/11 156/1/12 
s 4
f 157/1/13 158/1/14 159/1/15 160/1/16 
s 8
f 153/1/9 156/1/12 158/1/14 157/1/13 
s 16
f 156/1/12 155/1/11 159/1/15 158/1/14 
s 32
f 155/1/11 154/1/10 160/1/16 159/1/15 
s 64
f 154/1/10 153/1/9 157/1/13 160/1/16 
s 2
f 161/1/9 162/1/10 163/1/11 164/1/12 
s 4
f 165/1/13 166/1/14 167/1/15 168/1/16 
s 8
f 161/1/9 164/1/12 166/1/14 165/1/13 
s 16
f 164/1/12 163/1/11 167/1/15 166/1/14 
s 32
f 163/1/11 162/1/10 168/1/16 167/1/15 
s 64
f 162/1/10 161/1/9 165/1/13 168/1/16 
s 2
f 169/2/1 170/2/2 171/2/3 172/2/4 
s 4
f 173/2/5 174/2/6 175/2/7 176/2/8 
s 8
f 169/2/1 172/2/4 174/2/6 173/2/5 
s 16
f 172/2/4 171/2/3 175/2/7 174/2/6 
s 32
f 171/2/3 170/2/2 176/2/8 175/2/7 
s 64
f 170/2/2 169/2/1 173/2/5 176/2/8 
s 2
f 177/2/1 178/2/2 179/2/3 180/2/4 
s 4
f 181/2/5 182/2/6 183/2/7 184/2/8 
s 8
f 177/2/1 180/2/4 182/2/6 181/2/5 
s 16
f 180/2/4 179/2/3 183/2/7 182/2/6 
s 32
f 179/2/3 178/2/2 184/2/8 183/2/7 
s 64
f 178/2/2 177/2/1 181/2/5 184/2/8 
s 2
f 185/2/17 186/2/18 187/2/19 188/2/20 
s 4
f 189/2/21 190/2/22 191/2/23 192/2/24 
s 8
f 185/2/17 188/2/20 190/2/22 189/2/21 
s 16
f 188/2/20 187/2/19 191/2/23 190/2/22 
s 32
f 187/2/19 186/2/18 192/2/24 191/2/23 
s 64
f 186/2/18 185/2/17 189/2/21 192/2/24 
s 2
f 193/1/1 194/1/2 195/1/3 196/1/4 
s 4
f 197/1/5 198/1/6 199/1/7 200/1/8 
s 8
f 193/1/1 196/1/4 198/1/6 197/1/5 
s 16
f 196/1/4 195/1/3 199/1/7 198/1/6 
s 32
f 195/1/3 194/1/2 200/1/8 199/1/7 
s 64
f 194/1/2 193/1/1 197/1/5 200/1/8 
s 2
f 201/1/9 202/1/10 203/1/11 204/1/12 
s 4
f 205/1/13 206/1/14 207/1/15 208/1/16 
s 8
f 201/1/9 204/1/12 206/1/14 205/1/13 
s 16
f 204/1/12 203/1/11 207/1/15 206/1/14 
s 32
f 203/1/11 202/1/10 208/1/16 207/1/15 
s 64
f 202/1/10 201/1/9 205/1/13 208/1/16 
s 2
f 209/1/9 210/1/10 211/1/11 212/1/12 
s 4
f 213/1/13 214/1/14 215/1/15 216/1/16 
s 8
f 209/1/9 212/1/12 214/1/14 213/1/13 
s 16
f 212/1/12 211/1/11 215/1/15 214/1/14 
s 32
f 211/1/11 210/1/10 216/1/16 215/1/15 
s 64
f 210/1/10 209/1/9 213/1/13 216/1/16 
s 2
f 217/1/9 218/1/10 219/1/11 220/1/12 
s 4
f 221/1/13 222/1/14 223/1/15 224/1/16 
s 8
f 217/1/9 220/1/12 222/1/14 221/1/13 
s 16
f 220/1/12 219/1/11 223/1/15 222/1/14 
s 32
f 219/1/11 218/1/10 224/1/16 223/1/15 
s 64
f 218/1/10 217/1/9 221/1/13 224/1/16 
s 2
f 225/1/9 226/1/10 227/1/11 228/1/12 
s 4
f 229/1/13 230/1/14 231/1/15 232/1/16 
s 8
f 225/1/9 228/1/12 230/1/14 229/1/13 
s 16
f 228/1/12 227/1/11 231/1/15 230/1/14 
s 32
f 227/1/11 226/1/10 232/1/16 231/1/15 
s 64
f 226/1/10 225/1/9 229/1/13 232/1/16 
s 2
f 233/2/1 234/2/2 235/2/3 236/2/4 
s 4
f 237/2/5 238/2/6 239/2/7 240/2/8 
s 8
f 233/2/1 236/2/4 238/2/6 237/2/5 
s 16
f 236/2/4 235/2/3 239/2/7 238/2/6 
s 32
f 235/2/3 234/2/2 240/2/8 239/2/7 
s 64
f 234/2/2 233/2/1 237/2/5 240/2/8 
s 2
f 241/2/1 242/2/2 243/2/3 244/2/4 
s 4
f 245/2/5 246/2/6 247/2/7 248/2/8 
s 8
f 241/2/1 244/2/4 246/2/6 245/2/5 
s 16
f 244/2/4 243/2/3 247/2/7 246/2/6 
s 32
f 243/2/3 242/2/2 248/2/8 247/2/7 
s 64
f 242/2/2 241/2/1 245/2/5 248/2/8 
s 2
f 249/2/17 250/2/18 251/2/19 252/2/20 
s 4
f 253/2/21 254/2/22 255/2/23 256/2/24 
s 8
f 249/2/17 252/2/20 254/2/22 253/2/21 
s 16
f 252/2/20 251/2/19 255/2/23 254/2/22 
s 32
f 251/2/19 250/2/18 256/2/24 255/2/23 
s 64
f 250/2/18 249/2/17 253/2/21 256/2/24 
# 192 polygons

