# 3ds Max Wavefront OBJ Exporter v0.97b - (c)2007 guruware
# File Created: 11.08.2017 06:42:44

#
# object ArrowHead
#

v  -0.7514 -0.0181 0.0114
v  -0.7514 -0.0181 -0.0114
v  0.2953 -0.0181 -0.7804
v  0.2953 -0.0181 0.7804
v  -0.7514 0.0187 0.0114
v  0.2953 0.0187 0.7804
v  0.2953 0.0187 -0.7804
v  -0.7514 0.0187 -0.0114
# 8 vertices

vn -0.7013 -0.6182 0.3549
vn -0.7013 -0.6182 -0.3549
vn 0.3770 -0.5512 -0.7444
vn 0.3770 -0.5512 0.7444
vn -0.7013 0.6182 0.3549
vn 0.3770 0.5512 0.7444
vn 0.3770 0.5512 -0.7444
vn -0.7013 0.6182 -0.3549
# 8 vertex normals

vt 1.0000 0.0000 0.0000
vt 1.0000 1.0000 0.0000
vt 0.0000 1.0000 0.0000
vt 0.0000 0.0000 0.0000
# 4 texture coords

o ArrowHead
g ArrowHead
s 2
f 1/1/1 2/2/2 3/3/3 4/4/4 
s 4
f 5/4/5 6/1/6 7/2/7 8/3/8 
s 8
f 1/4/1 4/1/4 6/2/6 5/3/5 
s 16
f 4/4/4 3/1/3 7/2/7 6/3/6 
s 32
f 3/4/3 2/1/2 8/2/8 7/3/7 
s 64
f 2/4/2 1/1/1 5/2/5 8/3/8 
# 6 polygons

